<?xml version="1.0" encoding="utf-8"?>
<!-- Generator: Adobe Illustrator 21.1.0, SVG Export Plug-In . SVG Version: 6.00 Build 0)  -->
<svg version="1.1" id="Layer_1" xmlns="http://www.w3.org/2000/svg" xmlns:xlink="http://www.w3.org/1999/xlink" x="0px" y="0px"
	 viewBox="0 0 1000 500" style="enable-background:new 0 0 1000 500;" xml:space="preserve">
<style type="text/css">
	.st0{fill:#3B52C9;}
	.st1{fill:#2A3EB4;}
	.st2{fill:#415ACE;}
	.st3{fill:#384CBA;}
	.st4{fill:#2E41BC;}
	.st5{fill:#475ECC;}
	.st6{fill:#3247BD;}
	.st7{fill:#3347C1;}
	.st8{fill:#2635AE;}
	.st9{fill:#2432A3;}
	.st10{fill:#242D93;}
	.st11{fill:#172097;}
	.st12{fill:#192078;}
	.st13{fill:#A8BBF0;}
</style>
<g>
	<path class="st0" d="M666.6,274.7c1-1.9,2.5-3.4,4.3-4.5c0.2,1.3,0.4,2.7,2.1,2.7c0.5,0,1.3-0.5,1.4-1c0.3-1.6-1-2.1-2.1-2.8
		c9.1-7.1,18.5-14,27.4-21.5c14.5-12.1,28.3-25,43-36.8c13-10.4,25.6-21.4,38.1-32.4c13.3-11.7,25.6-24.5,39.1-35.8
		c10.1-8.4,18-19,29.1-26.1c-0.4,2.5-2,4.9-1,7.6c-8.6,8.1-17.1,16.3-25.8,24.3c-11.3,10.4-22.6,20.9-34.2,31
		c-25,21.8-49.7,43.9-75.5,64.7c-15,12.1-29.3,25.2-45.3,36.1C667,278.4,666.8,276.6,666.6,274.7z"/>
	<path class="st1" d="M289.7,43.5c5.1-1.9,10.6-1.1,15.8-2.2c4.1,4.2,7.5,1.4,10.9-1.1c8.4-1.3,16.8-0.9,25.1-0.3
		c0.4,0.6,0.8,0.6,1.3,0.1c0.9,0,1.8-0.1,2.7-0.1c0.5,0.6,1,0.4,1.3-0.2c1.4-0.4,2.8-0.3,3.9,0.8c0.8,1.5,1.7,1.9,2.7,0.3
		c2-0.3,3.9-0.5,5.9-0.8c0.7,0.2,1.3,0.5,2,0.7c16,3.3,32.3,5.3,46.5,14.3c14.1,8.9,23.9,20.5,24.2,38.1c0,2.9-0.1,5.8-0.1,8.8
		c-0.1,0.8-0.2,1.7-0.3,2.5c-2.1,0-4.2,0-6.3,0c1.9-11.7,0.6-22.5-7.1-32.2c-6.3-8-14.6-12.6-23.6-16.1c-7.7-3-15.3-6.5-23.9-6.7
		c-1.8,0-4-0.1-5.4-1.9c2.2-0.6,2.9-1.9,0.3-2.4c-3-0.6-6.3-0.1-10.1-0.1c1.6,0.9,2.4,1.5,3.3,2c-12.3-0.6-24.7-1.6-37-0.8
		c-3.1,0.1-6.4-1-9.4,0.8c-6.5,0.6-13,1.3-19.6,1.9C289.2,48.5,289.7,45.8,289.7,43.5z"/>
	<path class="st1" d="M297.3,44.9c0-0.2-0.1-0.4-0.1-0.5c-0.1,0-0.4,0.1-0.4,0.1c0,0.2,0.1,0.4,0.1,0.5
		C297,44.9,297.2,44.9,297.3,44.9z"/>
	<path class="st2" d="M492.5,433.6c14.2-10.4,29-19.8,42.5-31.1c18-15,34.2-31.7,50.4-48.6c10.7-11.2,20-23.4,30.4-34.8
		c2-2.1,4.8-2.7,6.3-5c0.8,0.1,1.6,0.2,2.4,0.3c-13.2,19-29,35.8-44.7,52.6c-12.7,13.6-26.7,26-40.6,38.4
		c-12,10.7-25.7,19-38.2,28.9c-1.5,1.2-3.5,1.7-5.3,2.5C495.2,435.3,494.1,434.3,492.5,433.6z"/>
	<path class="st3" d="M213.8,230.5c9.8-14,20-27.7,29.1-42.1c10.2-16.1,21.4-31.7,27.3-50.2c0.3-1,0.5-2.1,0.7-3.2
		c0.4-2.2-0.5-5.9,3.1-5.2c3.2,0.6,3,4.2,2.4,6.7c-2.4,10.6-7.1,20.4-13.3,29.3c-9,13.1-16.1,27.4-25.9,39.9
		c-5,6.4-9.8,13-14.5,19.6c-2.8,3.9-2.6,6.4,3.2,5.5C221.8,235.2,217.8,233.5,213.8,230.5z"/>
	<path class="st4" d="M337.6,189.7c0.1-0.3,0.4-0.5,0.7-0.5c5.1,2.1,8.4,0.5,9.9-4.9c1.3-0.5,2.6-1,3.9-1.5c2.8,1.5,3.1-1,4.1-2.4
		l0.1-0.1c0.4-0.3,0.8-0.7,1.2-1c7.6-5,15.4-9.7,22.4-15.5c0.1,1.9,0.1,3.8,0.2,5.7c-8.9,8.3-20.6,12.6-30.1,20.1
		c-10.3,8-22.8,11.6-34.3,17c-11,5.2-23.1,7.9-34.3,12.9c-1.3,0.6-3,0.5-4.5,0.8c-0.6,0.2-1.1,0.5-1.7,0.7c-2.2,0.6-4.5,1.1-6.7,1.7
		c0-1.8-0.1-3.6-0.1-5.4c0,0,0,0,0,0c0.5-0.3,1-0.5,1.4-0.8c8.9-0.6,15.5-7.3,24.1-8.9c4-0.8,7.9-2.3,11.8-3.5c1.8,2,2.3,0.7,2.7-1
		c1.7-0.8,3.4-1.6,5.1-2.4c6.2,2.5,9.9-1.4,13.6-5.4c0.3-0.4,0.6-0.5,1-0.5c1.9,0.2,3.8,0.3,4.3-2.3c1.3-0.6,2.5-1.1,3.8-1.7
		C336.6,190.4,337.1,190,337.6,189.7z"/>
	<path class="st5" d="M192.1,265.5c-10.4,16.2-23.7,30-35.7,44.8c-12.9,16-26.2,31.6-40.2,46.5c-3.6,3.9-7,7.9-10.5,11.9
		c-1.1,1.3-2.4,1.9-4.7,0.7c9.5-11.1,18.7-22.2,28.2-33.1c13.3-15.2,26.1-30.9,39-46.4c6.9-8.2,11.8-18,20.3-24.8
		C189.7,265.3,190.9,265.4,192.1,265.5z"/>
	<path class="st0" d="M730.4,173.4c-4.9,9.9-11.7,18.6-18,27.5c-13.2,18.6-27.1,36.8-40.7,55.2c-1.1,1.5-1.7,3.7-4,4.1
		c-1.5-0.6-2-1.9-2.2-3.4c6.9-9.6,13.7-19.1,20.6-28.7c12.4-17.3,25.5-34.1,36.4-52.4c1.5-2.5,3.4-4.6,5.5-6.5
		C728.2,171,727.6,173.2,730.4,173.4z"/>
	<path class="st0" d="M172.7,81.7c0.7-1.1,1.7-1.1,2.8-1c1.9,1.8,2.3,0.4,2.6-1.2c17.6-10.4,36.8-17,55.8-24.1
		c0.8-0.3,1.7,0,2.6-0.1c0.3,3.3-1.6,4.1-4.5,3.9c-2.8-0.1-4.7,0.9-4.8,4c-11.5,4.8-22.9,9.6-34.4,14.3c-9.8,4-19,9-27.7,15
		c-0.5,0.3-1.1,0.6-1.6,0.9c-3.5,1.9-6.9,3.8-10.4,5.7c-0.5,0.3-1,0.6-1.5,0.9c-2.5,2.1-5,4.4-8.2,5.6c-0.8,0.4-1.7,0.7-2.5,1.1
		c-1.2,0.8-2.5,1.6-3.7,2.4c-0.3-1.8-0.5-3.5-0.8-5.3c0,0,0.1,0,0.1,0c2.1,0.6,3-0.3,3-2.3c4.4-2.6,8.7-5.3,13.1-7.9
		c1.8,0.1,3.8,0.5,4.3-2.1c2.8-3.3,6.9-4.9,10.4-7.2C169.5,84.3,172.4,85.5,172.7,81.7z"/>
	<path class="st6" d="M380,169.5c-0.1-1.9-0.1-3.8-0.2-5.7c6.4-7.2,14.7-12.3,21.3-19.4c10.9-11.6,19.7-24.4,24-39.9
		c2.1,0,4.2,0,6.3,0c-1.8,12.8-7.9,23.8-16,33.4C405.3,150.1,394.4,161.8,380,169.5z"/>
	<path class="st7" d="M730.4,173.4c-2.8-0.2-2.2-2.5-2.5-4.2c1.7-4.7,6.6-7.6,7.6-14.7c-19.1,10.6-35.6,23.6-54,33.5
		c-2-1.4-1.1-3.7-1.5-5.6l0,0c3.1,0.3,6.4,0.8,6.9-3.7l0,0c3.8-0.3,8,0.2,7.9-5.6c10.5-6.8,20.8-13.9,31.5-20.4
		c4.3-2.6,6.9-7.6,12.4-8.3c2.3,3.9,3.7,8,2.8,12.6C737.9,162.6,734.2,168,730.4,173.4z"/>
	<path class="st8" d="M309.8,253.4c-0.5,2.4-2.1,3.9-4.3,4.9c0-2,0.3-3.8-3.1-3.1c-5.9,1.3-5,5.5-4.6,9.5
		c-6.6,7.6-13.1,15.1-19.7,22.7c-0.7-3-5.9-6.5-3.2-8.2c5.1-3.3,0-5,0.1-7.3c13.8-12,29.9-21.2,43-34c2.1-2,4.9-3.9,7.4-0.8
		c2.6,3.2-0.2,5.2-2.6,6.9c-1.4,1-2.9,1.9-4.4,2.8C310.5,246.5,308.8,247.8,309.8,253.4z"/>
	<path class="st0" d="M820.7,57c0.5,18.7-7.5,33.8-20.5,46.6c-4.2,4.1-8.1,8.6-13.3,11.6c-0.5,0.6-1,1.2-1.6,1.7
		c-0.7,1.1-1.6,1.8-2.9,1.9c-2.6-2.8-5.4,3.8-8-0.1c10.6-9.9,22.8-18.3,30.6-30.9c5.4-8.7,11.3-17.4,8-28.6
		C815.2,57,817.8,56.4,820.7,57z"/>
	<path class="st4" d="M324.3,318.5c2.1-1.6,4.2-3.1,6.3-4.7c6.1-4.7,5.5-10.4-1.4-13.7c-5.8-2.8-12-1.7-18-1.5
		c-1.4-0.1-2.8-0.3-4.2-0.4c0.2-5.9-4.7-4-7.7-5.1c11.9-4.1,23.6-3.6,34.8,2.2c5.5,2.9,9.8,7.1,8.7,14.2c-0.9,5.5-8,11.7-14.2,13
		C327,321.1,325.6,319.8,324.3,318.5z"/>
	<path class="st4" d="M883.7,81.9c5.3-6,10.5-12.2,16.1-18.1c8.6-9.2,15.2-19.8,22.8-29.7c2.7,0,2,4.6,5.2,4
		c-6.6,13.1-17.5,22.9-26.9,33.8c-4.9,5.6-10.6,10.5-15.9,15.7C884.6,85.7,885.4,83.5,883.7,81.9z"/>
	<path class="st7" d="M275.1,272c-0.1,2.3,4.9,4-0.1,7.3c-2.7,1.8,2.5,5.2,3.2,8.2c-1,2.2-2,4.5-4.4,5.5c-0.4-2.4-0.8-4.9-3.9-5.3
		c-4.8-2.4-8.1,1.1-11.4,3.4c-11,7.2-20.7,16.2-32.5,22.2c-0.2-4,3.5-4.8,5.9-6.4c2.5-1.7,3.8-3.4,3.2-6.4
		C248.4,291,261.8,281.5,275.1,272z"/>
	<path class="st9" d="M443.3,301c-6,2.2-6.8-2-8-6.2c-0.7-2.4-1.2-4.7-0.4-7.1c1-1,0.4-2.8,1-3.6c2.8-3.5,0-10.8,7.5-10.9
		c0,1.3-0.1,2.7-0.1,4c-1.1,1-1,2.2-0.7,3.4c0.1,3.4-1.8,7.9,1.1,9.9c3.5,2.4,6.1-2,9-3.8c5.7-3.7,11.3-7.4,17-11.1
		c3.5,0.4,3.3,2.8,3.1,5.3c-7.9,6.2-15.5,12.8-24.3,17.7c-1.1,0.6-2,1.8-3.6,1c0-1.8,0.1-3.7-2.4-3.8c-0.8,0-2.1,0.4-2.2,0.8
		C440.1,298.9,441.1,300.4,443.3,301z"/>
	<path class="st1" d="M383.3,468.2c1.4,0,2.8,0,4.2,0c2.4,0.1,4.7,0.3,7.1,0.1c3.9-0.2,8.4,1.3,10.8-3.4c0.9-0.1,1.7-0.2,2.6-0.3
		c2,3.6,0.7,5.6-3.1,6.5c-2.1,0.5-4.1,1.3-6.1,2c-17.2,2.9-34.2,3.7-50.9-2.6c-2.2-0.8-4.2-2.3-6.3-3.5c3-0.1,3.4-4,6.2-4.3
		c5.3,2.2,10.7,3.8,16.4,4.6c0.8,1.2,1.7,1.3,2.6,0.2c1.4,0.2,2.9,0.4,4.3,0.6c1.5,0,3-0.1,4.5-0.1c1.3,0.1,2.7,0.1,4,0.2
		C380.8,468.2,382,468.2,383.3,468.2z"/>
	<path class="st0" d="M107.8,131.3c-13,9.4-24.3,20.6-34.7,32.8c-6,7.1-12.7,13.7-15.9,22.8c-1.4-0.9-2.1-2.8-4.1-2.8
		c4.6-9.2,11-17.1,17.3-25c9.5-11.8,20.8-21.9,33.1-30.7C105.6,128.3,107.7,128.4,107.8,131.3z"/>
	<path class="st4" d="M398.4,270.4c-3.1,6.7-7.1,12.9-11.8,18.7c-2.4,0.1-4.6-0.1-6.7-1.4c2.5-4.1,5.1-8.1,7.6-12.2
		c0.8-1.3,1.9-3,0.7-4.1c-0.9-0.8-2.9-1-4.3-0.7c-4.4,1-8.8,2.4-13.1,3.6c-0.4-2.1-0.8-4.2-1.3-6.4c6.5-1.8,12.7-4.3,19.5-5.1
		c4.4-0.5,8.6-1.3,11-5.7c0.1,1.1,0.2,2.2,1.4,2.8c-0.5,3.6-3.9,1.9-5.8,3.1c-1.6,1-4.2,2.1-2.5,4.3
		C394.2,268.7,394.3,273.5,398.4,270.4z"/>
	<path class="st6" d="M227.3,63.3c0.1-3.1,2-4.2,4.8-4c2.8,0.1,4.8-0.6,4.5-3.9c1.5-1.3,3.5-1.1,5.3-1.4c3.3,2.6,5.4,1.5,6.7-2.2
		c9.4-2.3,18.9-4.5,28.3-6.8c4.2-1,8.3-2.7,12.8-1.5c0,2.4-0.5,5,3,5.4c-10.4,0.8-20.4,4.3-30.8,5.5c-7.1,0.8-13.9,3.6-20.8,5.7
		c-3.1,1-6.2,2.3-9.6,2.1c-0.5,0.2-1,0.4-1.6,0.6C229.1,62.9,228.2,63.1,227.3,63.3z"/>
	<path class="st7" d="M774.5,118.7c2.6,3.9,5.3-2.7,8,0.1c-6.1,5.1-11.3,11.5-19.4,13.7c-3.6-1.9-7.2,0-10.8-0.1
		c7.9-11.9,14.3-24.9,23.6-36c1.2,0.5,2.4,0.9,3.7,1.4c-2.6,7-7.6,12.8-10.8,19.4c-2.8,1.7-4.6,4-4.9,7.4c3.2-0.5,5.8-2,7.2-5
		C772.2,119.3,773.3,119,774.5,118.7z"/>
	<path class="st4" d="M210.2,323.9c-8.3,9.8-19.1,16.8-28.9,24.8c-3,2.4-4.8,5.7-7.8,7.9c-1.8,1.4-3.7,2.7-5.8,0.6
		c-2.4-2.4-0.2-4,1.1-5.6c7.1-9.2,17.4-14.4,26.2-21.6c6.8,0.5,9.7-4.2,12.2-9.3l0,0C209,321,210.1,322,210.2,323.9z"/>
	<path class="st8" d="M702.7,267.4c0.4-0.4,0.7-0.7,1.1-1.1c2.4,0.3,4.7,2,7.2-0.4c1.4-1.4,2.1,0.3,2.3,1.7
		c-8.2,7.6-14,17.3-21.4,25.5c-0.3,0.5-0.6,1-1,1.4l0,0c-3.1-2.6-4.4-9.7-10.7-4.3c-0.9,2.3-2.5,3.5-5.1,3.2c-0.5-1-1-1.9-1.5-2.9
		c0-0.9,0-1.8,0-2.8c3.6-4.6,9.2-5.8,14-8.3C694.8,281.7,701.9,276.1,702.7,267.4z"/>
	<path class="st1" d="M820.7,57c-2.9-0.6-5.5,0-7.6,2.1c-4.6,1-6.9,5-10,7.9c-8.4,7.7-13.3,18.2-21.6,25.9c-0.5-1-1-2-1.4-2.9
		c2.2-5.1,3.9-10.5,9.1-13.5c0.8-0.5,1.1-1.2,0.9-2.1c0.5-0.7,1-1.3,1.5-2c2.9,0.1,2.9-1.9,2.9-3.9c3.5-5.7,8-10.4,13-14.8
		c5.6-4.8,8.6-4.7,12.2,0.4c0.3,0.9,0.7,1.9,1,2.8L820.7,57z"/>
	<path class="st0" d="M668.5,196.2c-13.9,8.9-27.9,17.7-42.7,24.9c0-1.9,0.7-3.9-1.4-5.2c13.2-7.7,26.5-15.4,39.7-23.1
		C664.2,195.7,666.1,196.3,668.5,196.2z"/>
	<path class="st7" d="M440.8,456.4c7-4.2,15-6,22.4-9.1c7.2-3,14.6-5.7,21.4-9.5c1.3,0.6,1.7,1.8,1.8,3.2
		c-13.7,10-29.2,16.1-45.3,20.9C438.2,460.1,450.9,457.5,440.8,456.4z"/>
	<path class="st7" d="M240.4,324.7c0.7-4.1,3.6-7,6.4-9.6c7.2-6.7,12.1-15.2,18.8-22.2c2.8,2,1.3,4.8,1.6,7.3
		c-7.4,9.5-14.7,18.9-22.1,28.4C244.4,326.2,241.5,326.6,240.4,324.7z"/>
	<path class="st1" d="M414.4,238.6c5.5-9,10.9-18.1,16.4-27c1.2-2,2.8-3.5,5.4-2.1c2,1.1,3.1,3.2,2.2,5c-4.1,7.8-8.1,15.8-15,21.7
		c-2.8-0.8-4.3,1.7-6.5,2.6C416,238.7,415.2,238.7,414.4,238.6z"/>
	<path class="st10" d="M240.4,324.7c1,1.9,4,1.5,4.7,3.8c-0.5,0.6-1,1.3-1.5,1.9c-0.1,0.4-0.2,0.8-0.4,1.3c-1,11-1,11,10.5,11.5
		c1.5,0.1,3.3-0.3,3.7,1.7c0.4,1.9-1.4,2.8-2.6,3.4c-4.5,2.4-9.2,3.1-13.8,0.2c-5-3.2-6.9-8.1-5.8-13.6
		C236,331.3,237.1,327.3,240.4,324.7z"/>
	<path class="st11" d="M637.6,292.7c0.4-0.4,0.8-0.8,1.2-1.1c2.2,1.5,1.3,3.8,1.7,5.9c0.4,2.6-0.1,5.9,4,6.2
		c6.4-1.3,11.3-5.7,16.8-8.6c2.8-1.5,5.4-3.4,8.4-4.5c0.1,3.1-0.7,6.4-3.4,7.3c-8.8,3-14.9,11-24.4,12.5c-2.8-3.5-6.5,0.7-10-1.2
		c0.9-2.1,6.1-5.4-1-5.6c0.1-1.2,0.2-2.5,0.4-3.7c0.4-0.5,0.8-1,1.2-1.5C635.5,297.8,638.3,296.9,637.6,292.7z"/>
	<path class="st5" d="M334.7,415.8c1.5-9.6,8.6-16.2,13.4-23.9c2.5-3.9,4.1-8.2,7.1-11.8c1.1-1.3,1.9-3.8,3.8-2.9
		c2.5,1.2,0,2.9-0.4,4.4c-2,6.7-7.2,11.4-10.6,17.4c-3.7,6.6-4.9,14.1-9.1,20.4C336.5,419.4,334.7,418.7,334.7,415.8z"/>
	<path class="st10" d="M324.3,318.5c1.4,1.3,2.7,2.6,4.1,3.9c-5.2,6.3-12.4,8.7-20.1,10.1c-1.3-3.8-4.1-1.9-6.5-1.7
		c-4.4,0.4-8.6,0.3-10.7-4.7C302.9,326.9,313.9,323.9,324.3,318.5z"/>
	<path class="st4" d="M848,124.1c-1-2.7,0.6-5.1,1-7.6l0.1-0.1c0.4-0.4,0.8-0.7,1.3-1.1l0.1-0.2c4.5-1.6,8.7-3.6,9.2-9.2
		c6.5-6.7,13-13.5,19.6-20.2c2.6,0.2,3.1,1.9,2.9,4.1C872.5,102.9,859.4,112.7,848,124.1z"/>
	<path class="st2" d="M107.8,131.3c-0.2-2.8-2.2-2.9-4.3-3c10-9.4,21.4-17,32.9-24.3c0.3,1.8,0.5,3.5,0.8,5.3
		c-5.8,4.1-11.1,8.9-17.2,12.6C115.6,124.4,111.9,128.1,107.8,131.3z"/>
	<path class="st8" d="M752.2,132.4c3.6,0.1,7.2-1.8,10.8,0.1c-0.1,0.4-0.1,1-0.4,1.2c-8.4,6.6-14.5,15.3-21.1,23.5
		c0.8-4.6-0.6-8.7-2.8-12.6c3.9-3.2,7.9-6.4,11.8-9.6c0.4-0.6,0.9-1.1,1.3-1.7C751.8,132.9,751.9,132.6,752.2,132.4z"/>
	<path class="st7" d="M53.7,192.3c-3.8,10.4-3.4,20.2,3.6,29.3c0.1,1.9-0.1,3.7-2.7,3.8c-7.1-8-11.6-16.8-9.2-28
		c0.5-2.5,1.1-4.7,2.8-6.5C50.2,190.5,51.9,191.4,53.7,192.3z"/>
	<path class="st9" d="M347.7,462.8c-2.8,0.4-3.2,4.2-6.2,4.3c-10.3-7.6-14.8-17.7-13.1-30.5c2.4-0.6,3.6,1.1,5,2.6
		c0.9,7,2.6,13.5,7.8,18.9C343.2,460.3,345.7,461.1,347.7,462.8z"/>
	<path class="st7" d="M425.3,289.4c-3.1,6.5-8.3,11.9-9.9,19.2c-0.3,1.6-1.5,3.4-3.8,2.8c-2.1-0.6-2.3-2.4-2.3-4.3
		c-0.1-6.7,4.8-11.2,7.3-16.7c0.9-2,2-4.5,4.4-5.5C422.1,286.8,424.8,287.1,425.3,289.4z"/>
	<path class="st4" d="M425.3,289.4c-0.6-2.3-3.3-2.6-4.3-4.6c4.9-4.9,9.7-9.9,14.7-14.8c1.5-1.5,3.4-3.5,5.6-2.6
		c2.1,0.9,2.4,3.4,2.2,5.7c-7.5,0.1-4.7,7.5-7.5,10.9c-0.6,0.8,0,2.6-1,3.6c-0.7-1.6,0.9-4.3-1.6-4.9c-2.2-0.6-3.3,1.6-4.6,2.9
		C427.5,286.9,426.5,288.2,425.3,289.4z"/>
	<path class="st12" d="M213.8,230.5c4,3,8,4.7,12.2,0.4c0.4-0.3,0.8-0.4,1.2-0.2c0.1,1.7,1.5,3.4,0,5.1c-4,2.3-7.8,4.9-12.8,5.6
		c-4.6,0.6-7.2,4.7-10.3,7.8c-0.8-0.9-1.6-1.7-2.3-2.6C206.1,241.5,208.8,235.1,213.8,230.5z"/>
	<path class="st10" d="M366.4,228.4c-4.5,1.6-7.7,3.5-11.6,0.5c-2.1-1.6-5-1-7.6,0c-2.5,1-4.2-0.1-5.5-2.3c-0.9-1.6-1.8-2.9-0.4-4.8
		c1.5-2,3.2-1.5,5.3-1.3C353.7,221.1,360.1,222.9,366.4,228.4z"/>
	<path class="st12" d="M291.1,326.2c2.1,5,6.3,5.1,10.7,4.7c2.4-0.2,5.2-2.1,6.5,1.7c-5.7,3.1-12.1,2-18,1.9c-3.6,0-7.5-2.8-8.1-7.4
		c-0.6-4.4,2.9-5.9,6-7.5c1.7,0.3,3.1,1,3.2,3C291.2,323.8,291.1,325,291.1,326.2z"/>
	<path class="st7" d="M666.6,274.7c0.2,1.8,0.4,3.7,0.6,5.5c0,0.4-0.1,0.7-0.5,0.9c-1.1,0.1-1.9,0.5-2.2,1.6
		c-1.5,1.2-2.9,2.5-4.4,3.7c-1,0-1.9,0.4-2.4,1.4c-3.6,3-7.1,6-10.7,9c-1.5-3.2-0.6-7.9-5.5-9.1c0.8-2.2,2.2-4,4.2-5.2
		c1.3,0.2,2.5,0.3,3.8,0.5c-0.1,1.1-1.9,3.5,1.2,2.5c1.6-0.5,3.9-1.2,4.4-3.5c2-1.2,4.1-2.4,6.1-3.7c1.8,0.2,2.9-0.5,3-2.4
		C665.1,275.5,665.8,275.1,666.6,274.7z"/>
	<path class="st1" d="M927.7,38.2c-3.2,0.6-2.4-4-5.2-4c2.4-4.7,4.9-9.3,7.2-14.1c1.4-2.8,3.1-3.5,5.7-1.5c2.3,1.7,3.5,3.1,1,5.8
		C932.7,28.4,932,34.4,927.7,38.2z"/>
	<path class="st2" d="M210.2,323.9c-0.1-2-1.2-2.9-3.1-3.2c9-7.1,17.7-14.7,27.9-20.3c0.6,3-0.7,4.8-3.2,6.4c-2.3,1.6-6,2.3-5.9,6.4
		C220.7,316.9,216.5,322,210.2,323.9z"/>
	<path class="st0" d="M398.7,473.1c2-0.7,4-1.5,6.1-2c3.8-0.9,5.1-2.9,3.1-6.5c5.8-1.2,11.6-2.4,17.3-3.6c-3.3,5.4,1.9,3.5,3.8,4.4
		C419.6,470.3,409.3,472.2,398.7,473.1z"/>
	<path class="st2" d="M649.6,282.9c-1.3-0.2-2.5-0.3-3.8-0.5c3.6-6.7,9.3-11.8,13.9-17.8c2-2.6,3.9-5.2,5.9-7.8
		c0.2,1.5,0.7,2.7,2.2,3.4c-2.7,7.6-9.9,12-13.2,19.1C652.8,280.5,651.2,281.7,649.6,282.9z"/>
	<path class="st10" d="M686.9,301c-0.9,2.7,2.1,4.3,1.8,6.8c-0.2,1.9,1,4.2-1.4,5.3c-2,0.9-3.9,0.1-5.6-1.1c-5.6-3.7-5.6-8.4,0-14.9
		C684.8,296.5,685.9,298.7,686.9,301z"/>
	<path class="st10" d="M382.4,298.4c-2.5,5-5.2,10-7.5,15c-0.7,1.6-1.1,3.8-3.2,3.2c-2.3-0.6-3.7-2.9-2.8-5.1
		c2.2-5.4,2.5-11.6,7.4-15.7C378.2,296.9,379.8,298.9,382.4,298.4z"/>
	<path class="st12" d="M310.9,305c-6.1,4.6-12.8,5.1-19.6,2.4c-3.6-1.4-6.7-4.3-4.7-9.1c2.2,0.1,4.7,0.2,5.8,2.4
		c4.1,8.4,8,4.4,12.1,0.1c2.2,0.5,4.3,1.1,6.5,1.6l0,0C311,303.2,310.9,304.1,310.9,305z"/>
	<path class="st0" d="M268.4,217.2c0,1.8,0.1,3.6,0.1,5.4c-4.7,4.9-11.5,4.2-17.3,6.3c-0.3-2.1-1-3.9-2.8-5.1
		C254.4,219.9,261.6,219.3,268.4,217.2z"/>
	<path class="st12" d="M750.3,315.6c-1.4,6-6.7,6.4-11.1,6.2c-4.1-0.2-6.3-4.4-8.2-7.8c-0.9-1.7,0.1-3.8,1.7-4.6
		c2.4-1.2,4.7-0.7,6.1,2c0.5,0.5,0.9,1,1.4,1.5c0,0-0.1-0.1-0.1-0.1c2.4,4.6,5.4,5.8,9.2,1.5c0,0,0,0,0,0
		C749.7,314.8,750,315.2,750.3,315.6z"/>
	<path class="st12" d="M630.8,303.5c7.2,0.2,1.9,3.6,1,5.6c3.5,1.9,7.2-2.3,10,1.2c-0.5,0.8-0.9,1.7-1.4,2.5
		c-5,3.4-10.5,1.2-15.7,1.5c-0.8-0.1-1.6-0.2-2.4-0.3c-1.6-4,2.2-5.3,3.8-7.7C628.1,306.3,629.2,304.5,630.8,303.5z"/>
	<path class="st7" d="M576.1,238.8c-2.4-0.6-4.8-1.4-3.9-4.7c0.8-2.8,3.2-2.7,5.4-2c8.8,2.4,16.1-2.9,24.2-4.5c-0.4,1-0.9,2-1.3,3
		c-2.6,1.7-4.9,4.3-8.2,3.9C586.3,233.8,581.4,237,576.1,238.8z"/>
	<path class="st1" d="M481.1,268c4.4-4.9,11.5-5.3,16.3-9.6c1.1-1,2.5-0.8,3.3,0.6c1.1,2,0.1,3.5-1.5,4.5
		c-5.1,3.4-10.2,6.6-15.4,9.9C484,271,482.7,269.4,481.1,268z"/>
	<path class="st10" d="M640.4,312.9c0.5-0.8,0.9-1.7,1.4-2.5c9.5-1.5,15.6-9.4,24.4-12.5c2.8-1,3.5-4.3,3.4-7.3
		c0.7-0.1,1.4-0.2,2.1-0.4c0.7,0.1,1.3,0.2,2,0.2c0.5,1,1,1.9,1.5,2.9c-0.5,1-0.7,2.4-1.4,2.8C662.7,301.9,652.9,310.2,640.4,312.9z
		"/>
	<path class="st9" d="M576.1,238.8c5.3-1.8,10.1-5,16.2-4.3c3.3,0.4,5.6-2.2,8.2-3.9c1.9,0.1,4,0,4.1,2.8l0,0
		c-0.4,0.2-0.9,0.5-1.3,0.7c-0.5,0.2-0.9,0.4-1.4,0.6c-0.9,0.3-1.8,0.7-2.7,1C591.9,239.1,584.6,243.5,576.1,238.8z"/>
	<path class="st3" d="M333.4,439.2c-1.3-1.5-2.5-3.2-5-2.6c1.1-7.2,2.6-14.3,6.3-20.8c0,2.9,1.8,3.6,4.2,3.5
		C337.1,425.9,335.2,432.6,333.4,439.2z"/>
	<path class="st12" d="M398.4,270.4c-4.1,3.1-4.2-1.7-5.3-3.1c-1.8-2.2,0.9-3.3,2.5-4.3c1.8-1.1,5.2,0.5,5.8-3.1
		c2.2-0.4,4.4-0.9,6.6-1.3c-0.5,4.2,1.4,5.9,5.5,5.4C408,265.4,402.7,266.8,398.4,270.4z"/>
	<path class="st8" d="M369.4,267.9c0.4,2.1,0.8,4.2,1.3,6.4c-1.2,1-2.5,1.7-2.8,3.4c-0.3,1.7,0.8,4.9-2.1,4.5
		c-3.7-0.6-5-4.6-6.5-7.6c-0.9-1.8,0.5-3.7,2.8-4.3C364.6,269.6,367,268.7,369.4,267.9z"/>
	<path class="st2" d="M201.8,246.7c0.8,0.9,1.6,1.7,2.3,2.6c-3.4,5.9-6.2,12.2-12.1,16.3c-1.2-0.1-2.4-0.2-3.6-0.3
		C192.4,258.6,196.7,252.4,201.8,246.7z"/>
	<path class="st8" d="M604.6,233.3c-0.1-2.7-2.1-2.7-4.1-2.8c0.4-1,0.8-2,1.3-3c1.9-1.4,4-2.2,6.4-2.4c0.6-0.3,1.2-0.5,1.7-0.8
		c0.9-0.5,1.8-1.1,2.7-1.6c3.5,2.6,7.2-1.2,10.7,0.1c-3.5,2.3-6.3,5.7-10.7,6.8c-4-3.6-4-0.4-4.1,2.4
		C607.6,233.7,606,233.3,604.6,233.3z"/>
	<path class="st8" d="M429.1,465.5c-1.9-0.9-7.2,1-3.8-4.4c4.8-2.8,10.4-2.9,15.5-4.7c10.1,1.2-2.6,3.7,0.3,5.3c0,0,0,0.1,0,0.1
		c-1.1-0.1-2,0.1-2.6,1.1c-0.3,0.3-0.6,0.5-1,0.4c-2.1,0.1-4.7-1.1-5.7,2.1C430.9,465.4,430,465.5,429.1,465.5z"/>
	<path class="st6" d="M248.3,223.9c1.8,1.2,2.5,3,2.8,5.1c-4.9,1.5-9.3,4.2-14.6,4.3c-0.4-1.8-0.9-3.6-1.3-5.3
		c2.8-1.3,5.6-2.6,8.8-2.8c0.6-0.2,1.2-0.4,1.8-0.6C246.6,224.3,247.5,224.1,248.3,223.9z"/>
	<path class="st10" d="M304.5,300.7c-4,4.3-8,8.3-12.1-0.1c-1.1-2.2-3.6-2.3-5.8-2.4c2.2-2.2,5-3.2,8.1-3.4c0.7,6.8,6.9,2.9,10,5.1
		C304.7,300.2,304.7,300.4,304.5,300.7z"/>
	<path class="st3" d="M481.1,268c1.6,1.4,2.9,3,2.8,5.3l0,0c-2.1-0.3-4.1-0.3-4.1,2.7c-1.6,2.6-4.3,3.6-6.8,4.9
		c0.2-2.5,0.4-5-3.1-5.3C473.6,273,477.3,270.5,481.1,268z"/>
	<path class="st10" d="M407.8,258.6c-2.2,0.4-4.4,0.9-6.6,1.3c-1.2-0.6-1.3-1.7-1.4-2.8c0.4-0.4,0.8-0.8,1.2-1.2
		c0.5-0.4,1-0.9,1.5-1.3l-0.1,0.1c0.4-0.5,0.8-1.1,1.2-1.6l-0.1,0.1c5.7,0.8,3.9-3.6,4.3-6.4c0.4-0.5,0.8-0.9,1.2-1.4
		c0.9,0,1.7,0,2.6,0.1c0.1,2.3,0.2,4.6,0.3,6.9c-0.3,0.7-0.6,1.5-0.8,2.2c-1.4,1-1.9,2.4-2.1,4C408.7,258.6,408.3,258.6,407.8,258.6
		z"/>
	<path class="st8" d="M641.5,287.7c4.9,1.2,4,5.8,5.5,9.1c-1.5,2.1-4,3.8-2.6,6.9c-4.1-0.3-3.5-3.6-4-6.2c-0.3-2,0.6-4.4-1.7-5.9
		C639,289.8,639.9,288.5,641.5,287.7z"/>
	<path class="st10" d="M418.6,257.5c3.5,0,7-0.1,10.4-0.1c1.5,0,3.5,0,3.9,1.7c0.5,2.1-1.8,2.3-3.1,2.6c-3.3,0.9-6.4,2.9-10,2
		c0-1.7,0-3.3-1.8-4.2C418.3,258.8,418.4,258.1,418.6,257.5z"/>
	<path class="st0" d="M702.7,267.4c-0.8,8.7-7.9,14.3-15.1,12C692.6,275.4,697.6,271.4,702.7,267.4z"/>
	<path class="st7" d="M668.5,196.2c-2.4,0.1-4.3-0.5-4.4-3.4c2.5-3,6.1-4.5,9.4-6.4c1,2.5,4.1,0.8,5.3,2.7
		C675.7,192,672.6,194.8,668.5,196.2z"/>
	<path class="st9" d="M382.4,298.4c-2.6,0.5-4.2-1.5-6.2-2.6c0.6-3,1.8-5.7,3.7-8.1c2.1,1.2,4.3,1.5,6.7,1.4
		C386.3,292.7,382.6,294.7,382.4,298.4z"/>
	<path class="st0" d="M54.6,225.3c2.6-0.1,2.7-1.9,2.7-3.8c3.3,3.6,6.6,7.2,8.5,13.2C60.1,232.8,57.1,229.4,54.6,225.3z"/>
	<path class="st8" d="M267.3,300.2c-0.3-2.5,1.2-5.4-1.6-7.3c1.4-1.7,2.8-3.4,4.2-5.1c3.1,0.5,3.5,2.9,3.9,5.3
		C271.6,295.4,269.4,297.8,267.3,300.2z"/>
	<path class="st1" d="M235.2,228c0.4,1.8,0.9,3.6,1.3,5.3c-2.9,1.8-5.8,3.4-9.3,2.5c1.4-1.7,0-3.4,0-5.1
		C229.7,229.2,232.3,228.2,235.2,228z"/>
	<path class="st12" d="M304.7,299.9c-3.1-2.2-9.2,1.7-10-5.1c1-0.1,2-0.2,3.1-0.4c0.4-0.4,0.8-0.8,1.3-1.2c0,0,0.1-0.1,0.1-0.1
		c3,1,7.9-0.8,7.8,5.1C306.2,298.7,305.4,299.3,304.7,299.9z"/>
	<path class="st2" d="M713.4,267.6c-0.2-1.4-0.9-3-2.3-1.7c-2.5,2.4-4.8,0.7-7.2,0.4c1.5-3.1,5.2-2.7,7.5-4.7c1.3-1.2,2.5,0,3.1,1.1
		C715.5,264.6,715.8,266.4,713.4,267.6z"/>
	<path class="st11" d="M418.1,259.5c1.8,0.9,1.8,2.6,1.8,4.2c-2.2,0.1-4.3,0.2-6.5,0.2c-4.1,0.5-6-1.2-5.5-5.4c0.4,0,0.9,0,1.3-0.1
		C412,260.7,415.1,259.6,418.1,259.5z"/>
	<path class="st0" d="M623.3,222.8c-3.6-1.3-7.2,2.5-10.7-0.1c3-3,7.2-4,10.6-6.3C623.2,218.6,623.2,220.7,623.3,222.8L623.3,222.8z
		"/>
	<path class="st5" d="M291.3,322.6c-0.1-2.1-1.5-2.7-3.2-3c3.2-2.5,7.2-2.7,11.7-3.9C298,320.2,294.8,321.5,291.3,322.6z"/>
	<path class="st11" d="M297.9,264.8c-0.4-4.1-1.3-8.2,4.6-9.5c3.4-0.8,3,1.1,3.1,3.1c-1.8,1.4-3.6,2.8-5.4,4.2
		c-0.4,0.4-0.8,0.8-1.2,1.2C298.6,264.1,298.3,264.5,297.9,264.8z"/>
	<path class="st2" d="M53.7,192.3c-1.7-0.8-3.4-1.7-5.5-1.4c0.6-2.1,1.6-4,3.2-5.5c0.6-0.5,1.2-0.9,1.8-1.4c0,0-0.1,0-0.1,0
		c2,0,2.7,1.9,4.1,2.8C56.6,189,55.6,190.9,53.7,192.3z"/>
	<path class="st0" d="M411.8,245.3c-0.9,0-1.7,0-2.6-0.1c1-2.8,2.7-5,5.2-6.7c0.8,0,1.6,0.1,2.5,0.1c0.5,1.8-0.5,4.2,1.9,5.4
		c-0.2,0.4-0.4,0.9-0.6,1.3c-0.5,0.4-1.1,0.8-1.6,1.3c0.1,0.2,0.2,0.5,0.3,0.7c0,0.1-0.2,0.2-0.3,0.4
		C415.8,245.4,413.9,245.1,411.8,245.3z"/>
	<path class="st2" d="M680.2,290.2c6.3-5.4,7.6,1.7,10.7,4.3c-0.9,1.4-1.7,2.8-2.6,4.2c-1-2.5,1.1-8.7-5.4-4.2
		C682.4,292.8,684.7,289.3,680.2,290.2z"/>
	<path class="st0" d="M405.4,465c-2.5,4.7-7,3.1-10.8,3.4c-2.3,0.2-4.7-0.1-7.1-0.1C393.2,466,399.4,466.3,405.4,465z"/>
	<path class="st2" d="M207.1,320.7c-2.6,5.1-5.4,9.8-12.2,9.3C198.6,326.4,202.7,323.4,207.1,320.7z"/>
	<path class="st5" d="M327,195.2c-3.6,4-7.3,7.9-13.6,5.4C318,198.8,322.5,197,327,195.2z"/>
	<path class="st0" d="M859.7,105.9c-0.4,5.7-4.7,7.6-9.2,9.2C852.4,111,855.8,108.2,859.7,105.9z"/>
	<path class="st11" d="M309.8,253.4c-1-5.6,0.7-6.9,8.7-6.6C315.7,249.1,313.6,252.4,309.8,253.4z"/>
	<path class="st7" d="M492.5,433.6c1.5,0.7,2.7,1.7,3.3,3.3c-2.3,1.1-4.5,2.2-6.8,3.2c0-1.7-0.1-3.4-0.1-5.1
		C489.7,433.7,491.2,433.8,492.5,433.6z"/>
	<path class="st5" d="M348.2,184.3c-1.5,5.3-4.8,6.9-9.9,4.9C340.9,186.2,344.9,186,348.2,184.3z"/>
	<path class="st5" d="M678.8,189.2c-1.3-1.9-4.4-0.2-5.3-2.7c2.2-1.3,4.4-2.6,6.5-3.9c0.5,1.9-0.5,4.1,1.5,5.6
		C680.6,188.5,679.7,188.8,678.8,189.2z"/>
	<path class="st2" d="M316.4,40.1c-3.4,2.5-6.8,5.3-10.9,1.1C309.1,40.8,312.6,39,316.4,40.1z"/>
	<path class="st8" d="M683,294.4c6.5-4.5,4.4,1.8,5.4,4.2c-0.2,1-0.5,1.9-1.5,2.3c-1-2.3-2-4.5-5.2-3.9
		C682.2,296.2,682.6,295.3,683,294.4z"/>
	<path class="st5" d="M418.1,259.5c-3,0.1-6.1,1.2-8.9-1c0.2-1.6,0.7-3.1,2.1-4c0.7,5.4,5,1.8,7.4,2.9
		C418.4,258.1,418.3,258.8,418.1,259.5z"/>
	<path class="st10" d="M418.8,244.1c-2.4-1.2-1.4-3.6-1.9-5.4c2.2-0.8,3.7-3.3,6.5-2.6C422.7,239.3,421.1,241.9,418.8,244.1z"/>
	<path class="st11" d="M358.8,46.9c-0.9-0.5-1.8-1.1-3.3-2c3.8,0,7.1-0.5,10.1,0.1c2.6,0.5,1.9,1.8-0.3,2.4
		C363.1,47.3,360.9,47.1,358.8,46.9z"/>
	<path class="st9" d="M749.4,314.3c-3.8,4.3-6.8,3.1-9.2-1.5C743,314.9,746.4,313.2,749.4,314.3z"/>
	<path class="st5" d="M694.8,173.3c0.1,5.7-4.1,5.3-7.9,5.6C689.4,176.7,691,173.5,694.8,173.3z"/>
	<path class="st13" d="M649.6,282.9c1.6-1.2,3.3-2.4,4.9-3.6c0.2,0.9,0.5,1.8,0.7,2.6c-0.5,2.3-2.8,3-4.4,3.5
		C647.7,286.4,649.5,284.1,649.6,282.9z"/>
	<path class="st0" d="M882.2,89.8c0.2-2.2-0.3-3.9-2.9-4.1c1.5-1.3,3-2.5,4.4-3.8c1.8,1.6,0.9,3.8,1.3,5.7
		C884.3,88.7,883.6,89.7,882.2,89.8z"/>
	<path class="st12" d="M443.3,301c-2.3-0.6-3.2-2.1-2.8-4.3c0.1-0.4,1.4-0.8,2.2-0.8c2.5,0.1,2.4,2,2.4,3.8
		C444.5,300.1,443.9,300.6,443.3,301z"/>
	<path class="st1" d="M411.8,245.3c2.1-0.2,4,0,4.7,2.4c-1.5,1.5-3,3-4.5,4.5C412,250,411.9,247.7,411.8,245.3z"/>
	<path class="st0" d="M248.6,51.7c-1.3,3.7-3.4,4.8-6.7,2.2C243.7,52.1,246.2,52,248.6,51.7z"/>
	<path class="st1" d="M408,246.7c-0.4,2.8,1.4,7.1-4.3,6.4C404.7,250.6,405.9,248.4,408,246.7z"/>
	<path class="st5" d="M686.9,178.9c-0.6,4.5-3.8,3.9-6.9,3.7C681.6,180,684.4,179.7,686.9,178.9z"/>
	<path class="st3" d="M630.8,303.5c-1.6,0.9-2.7,2.8-4.8,2.9c0.4-3.3,3.1-4.7,5.2-6.6C631.1,301.1,630.9,302.3,630.8,303.5z"/>
	<path class="st13" d="M304.7,299.9c0.7-0.6,1.4-1.2,2.1-1.7c1.4,0.1,2.8,0.3,4.2,0.4c0,1.3,0,2.5-0.1,3.8c-2.2-0.5-4.3-1.1-6.5-1.6
		C304.7,300.4,304.7,300.2,304.7,299.9z"/>
	<path class="st8" d="M623.3,222.9c0-2.1,0-4.3-0.1-6.4c0.3-0.4,0.6-0.6,1.1-0.5c2.1,1.3,1.4,3.3,1.4,5.2
		C624.9,221.7,624.1,222.3,623.3,222.9z"/>
	<path class="st3" d="M637.6,292.7c0.7,4.1-2,5.1-5.2,5.6C633.3,295.8,635.7,294.5,637.6,292.7z"/>
	<path class="st2" d="M488.9,435.1c0,1.7,0.1,3.4,0.1,5.1c-0.6,1-1.7,0.6-2.6,0.7c-0.1-1.3-0.5-2.5-1.8-3.2
		C486.1,436.8,487.5,436,488.9,435.1z"/>
	<path class="st1" d="M779.5,97.8c-1.2-0.5-2.4-0.9-3.7-1.4c0.1-1.1,0.3-2.1,1.5-2.6c1.3,0,2.6,0,4,0
		C780.6,95.1,780.1,96.5,779.5,97.8z"/>
	<path class="st7" d="M672.3,269.2c1.1,0.7,2.4,1.2,2.1,2.8c-0.1,0.4-0.9,0.9-1.4,1c-1.7,0-1.9-1.4-2.1-2.7
		C671.3,269.9,671.8,269.5,672.3,269.2z"/>
	<path class="st5" d="M312.3,46.9c3-1.8,6.3-0.7,9.4-0.8C318.7,47.9,315.5,47.1,312.3,46.9z"/>
	<path class="st9" d="M608.6,232.1c0.1-2.9,0.1-6,4.1-2.4C611.3,230.4,609.9,231.2,608.6,232.1z"/>
	<path class="st7" d="M781.2,93.8c-1.3,0-2.6,0-4,0c0.5-1.6,1.4-2.9,2.7-3.8c0.5,1,1,2,1.4,2.9C781.6,93.3,781.5,93.6,781.2,93.8z"
		/>
	<path class="st2" d="M172.7,81.7c-0.3,3.8-3.2,2.6-5.4,2.8C168.6,82.5,170.9,82.6,172.7,81.7z"/>
	<path class="st0" d="M431.8,465.4c1-3.3,3.6-2,5.7-2.1C436,465,433.8,465.1,431.8,465.4z"/>
	<path class="st5" d="M356.2,180.4c-1,1.4-1.3,4-4.1,2.4C353.1,181.4,354.5,180.7,356.2,180.4z"/>
	<path class="st6" d="M431.9,101.9c0-2.9,0.1-5.8,0.1-8.8C433.5,96.1,433.5,99,431.9,101.9z"/>
	<path class="st1" d="M479.7,276c0-3,2-3,4.1-2.7C483.1,275.1,481.4,275.5,479.7,276z"/>
	<path class="st5" d="M332.3,192.4c-0.4,2.6-2.3,2.4-4.3,2.3C329.1,193.2,330.6,192.6,332.3,192.4z"/>
	<path class="st2" d="M156.9,91.6c-0.5,2.6-2.5,2.2-4.3,2.1C153.6,92.2,155.3,91.9,156.9,91.6z"/>
	<path class="st5" d="M794.5,68.5c0.1,2.1,0,4-2.9,3.9C792.6,71.1,793.5,69.8,794.5,68.5z"/>
	<path class="st13" d="M310.9,305c0-0.9,0.1-1.7,0.1-2.6c0.9-0.1,1.9,0.1,2,1.1C313.2,304.9,312,305,310.9,305z"/>
	<path class="st2" d="M353.5,40.8c-1.1,1.6-2,1.2-2.7-0.3C351.6,40.6,352.5,40.7,353.5,40.8z"/>
	<path class="st0" d="M664.3,275.9c-0.1,1.9-1.3,2.6-3,2.4C661.9,277,662.9,276.2,664.3,275.9z"/>
	<path class="st2" d="M178.1,79.5c-0.3,1.6-0.7,3-2.6,1.2C176.4,80.3,177.3,79.9,178.1,79.5z"/>
	<path class="st2" d="M139.5,101.6c-0.1,2-0.9,3-3,2.3C137.5,103.2,138.5,102.4,139.5,101.6z"/>
	<path class="st5" d="M308.4,203c-0.4,1.7-0.9,3-2.7,1C306.3,203.1,307.2,202.8,308.4,203z"/>
	<path class="st0" d="M375.6,468c-1.5,0-3,0.1-4.5,0.1C372.5,467.3,374,467,375.6,468z"/>
	<path class="st0" d="M820.7,56.9c-0.3-0.9-0.7-1.9-1-2.8C820.5,54.8,821.3,55.6,820.7,56.9z"/>
	<path class="st0" d="M438.5,462.8c0.6-1,1.5-1.2,2.6-1.1C440.2,462.1,439.3,462.5,438.5,462.8z"/>
	<path class="st11" d="M673.6,290.5c-0.7-0.1-1.3-0.2-2-0.2c0.2-1.1,0.4-2.4,1.9-2.5C673.6,288.6,673.6,289.6,673.6,290.5z"/>
	<path class="st0" d="M664.4,282.7c0.3-1.2,1.2-1.5,2.2-1.6C666.4,282.3,665.4,282.5,664.4,282.7z"/>
	<path class="st4" d="M442.8,280.6c-0.3-1.2-0.4-2.4,0.7-3.4C443.8,278.4,443.8,279.6,442.8,280.6z"/>
	<path class="st8" d="M599.3,235.7c0.9-0.3,1.8-0.7,2.7-1C601.3,235.7,600.3,235.8,599.3,235.7z"/>
	<path class="st2" d="M141,106.8c0.8-0.4,1.7-0.7,2.5-1.1C142.6,106.1,141.8,106.5,141,106.8z"/>
	<path class="st0" d="M657.7,287.8c0.5-1,1.4-1.3,2.4-1.4C659.7,287.7,658.9,288.1,657.7,287.8z"/>
	<path class="st0" d="M366.7,467.5c-1,1.1-1.8,1-2.6-0.2C365,467.4,365.9,467.5,366.7,467.5z"/>
	<path class="st0" d="M383.3,468.2c-1.2,0-2.5,0-3.7,0C380.8,467.2,382,467.2,383.3,468.2z"/>
	<path class="st9" d="M740.2,312.9c-0.5-0.5-0.9-1-1.4-1.5C739.3,311.9,739.8,312.4,740.2,312.9z"/>
	<path class="st1" d="M402.6,254.5c-0.5,0.4-1,0.9-1.5,1.3C401.6,255.4,402.1,254.9,402.6,254.5z"/>
	<path class="st1" d="M403.8,253c-0.4,0.5-0.8,1.1-1.2,1.6C403,254,403.4,253.5,403.8,253z"/>
	<path class="st7" d="M751.8,133.3c-0.4,0.6-0.9,1.1-1.3,1.7C751,134.4,751.4,133.8,751.8,133.3z"/>
	<path class="st9" d="M750.3,315.6c-0.3-0.4-0.6-0.9-0.9-1.3C750.2,314.4,750.5,314.8,750.3,315.6z"/>
	<path class="st10" d="M416.6,246.7c0.5-0.4,1.1-0.8,1.6-1.3C418,246.3,417.5,246.8,416.6,246.7z"/>
	<path class="st5" d="M790.1,74.5c0.2,0.9-0.1,1.6-0.9,2.1C789.5,75.8,789.8,75.1,790.1,74.5z"/>
	<path class="st2" d="M346.8,39.6c-0.4,0.6-0.8,0.8-1.3,0.2C346,39.8,346.4,39.7,346.8,39.6z"/>
	<path class="st2" d="M361.3,40.7c-0.7-0.2-1.3-0.5-2-0.7C360.3,39.4,361,39.6,361.3,40.7z"/>
	<path class="st7" d="M243.3,331.7c0.1-0.4,0.2-0.8,0.4-1.3C243.5,330.8,243.4,331.2,243.3,331.7z"/>
	<path class="st0" d="M850.4,115.4c-0.4,0.4-0.8,0.7-1.3,1.1C849.6,116.1,850,115.7,850.4,115.4z"/>
	<path class="st7" d="M785.4,116.9c0.5-0.6,1-1.2,1.6-1.7C786.4,115.8,785.9,116.3,785.4,116.9z"/>
	<path class="st5" d="M337.6,189.7c-0.5,0.4-1,0.7-1.5,1.1C336.6,190.4,337.1,190,337.6,189.7z"/>
	<path class="st0" d="M230,62.6c0.5-0.2,1-0.4,1.6-0.6C231.1,62.3,230.5,62.4,230,62.6z"/>
	<path class="st10" d="M299.1,293.2c-0.4,0.4-0.8,0.8-1.3,1.2C298.2,294,298.6,293.6,299.1,293.2z"/>
	<path class="st0" d="M275.1,220.9c0.6-0.2,1.1-0.5,1.7-0.7C276.3,220.4,275.7,220.7,275.1,220.9z"/>
	<path class="st2" d="M691,294.5c0.3-0.5,0.6-1,1-1.4C692.1,293.9,691.7,294.3,691,294.5z"/>
	<path class="st2" d="M151.6,100.1c0.5-0.3,1-0.6,1.5-0.9C152.6,99.5,152.1,99.8,151.6,100.1z"/>
	<path class="st0" d="M269.8,216.5c-0.5,0.3-1,0.5-1.4,0.8C268.8,217,269.3,216.7,269.8,216.5z"/>
	<path class="st0" d="M609.9,224.4c-0.6,0.3-1.2,0.5-1.7,0.8C608.7,224.9,609.3,224.6,609.9,224.4z"/>
	<path class="st0" d="M245.8,224.5c-0.6,0.2-1.2,0.4-1.8,0.6C244.6,224.9,245.2,224.7,245.8,224.5z"/>
	<path class="st0" d="M53.2,183.9c-0.6,0.5-1.2,0.9-1.8,1.4C52,184.9,52.6,184.4,53.2,183.9z"/>
	<path class="st8" d="M299,263.7c0.4-0.4,0.8-0.8,1.2-1.2C299.8,262.9,299.4,263.3,299,263.7z"/>
	<path class="st2" d="M163.5,93.5c0.5-0.3,1.1-0.6,1.6-0.9C164.6,92.9,164.1,93.2,163.5,93.5z"/>
	<path class="st8" d="M603.3,234c0.4-0.2,0.9-0.5,1.3-0.7C604.2,233.6,603.7,233.8,603.3,234z"/>
	<path class="st2" d="M342.8,39.9c-0.5,0.6-0.9,0.5-1.3-0.1C342,39.9,342.4,39.9,342.8,39.9z"/>
	<path class="st5" d="M357.5,179.2c-0.4,0.3-0.8,0.7-1.2,1C356.7,179.9,357.1,179.6,357.5,179.2z"/>
	<path class="st2" d="M297.3,44.9c-0.1,0-0.3,0.1-0.4,0.1c-0.1-0.2-0.1-0.4-0.1-0.5c0,0,0.3-0.1,0.4-0.1
		C297.2,44.5,297.3,44.7,297.3,44.9z"/>
	<path class="st13" d="M768.6,117.2c0.8,0.8,1.6,1.5,2.4,2.3c-1.5,3-4,4.5-7.2,5C764,121.2,765.9,118.9,768.6,117.2z"/>
</g>
</svg>
