<?xml version="1.0" encoding="utf-8"?>
<!-- Generator: Adobe Illustrator 21.1.0, SVG Export Plug-In . SVG Version: 6.00 Build 0)  -->
<svg version="1.1" id="Layer_1" xmlns="http://www.w3.org/2000/svg" xmlns:xlink="http://www.w3.org/1999/xlink" x="0px" y="0px"
	 viewBox="0 0 1000 500" style="enable-background:new 0 0 1000 500;" xml:space="preserve">
<style type="text/css">
	.st0{fill:#FDFDFE;}
	.st1{fill:#3B52C9;}
	.st2{fill:#2A3EB4;}
	.st3{fill:#415ACE;}
	.st4{fill:#384CBA;}
	.st5{fill:#2E41BC;}
	.st6{fill:#475ECC;}
	.st7{fill:#3247BD;}
	.st8{fill:#3347C1;}
	.st9{fill:#2635AE;}
	.st10{fill:#2432A3;}
	.st11{fill:#242D93;}
	.st12{fill:#172097;}
	.st13{fill:#192078;}
	.st14{fill:#A8BBF0;}
</style>
<g>
	<path class="st0" d="M500.2,502.6c-162.7,0-325.5,0-488.2,0.1c-5.1,0-6-1.1-6-6.1C6.2,331.8,6.2,167,6,2.2C6-2.6,6.7-4,12-4
		c325.5,0.2,650.9,0.2,976.4,0c4.8,0,5.7,1,5.7,5.7c-0.2,164.8-0.2,329.6,0,494.5c0,5.1-0.9,6.5-6.3,6.5
		C825.2,502.6,662.7,502.6,500.2,502.6z M402.3,257C402.3,257,402.3,257,402.3,257c-0.5,0.4-1,0.9-1.5,1.3c-0.4,0.4-0.9,0.9-1.3,1.3
		c-2.5,4.7-6.9,5.5-11.5,6c-7.1,0.8-13.7,3.4-20.4,5.4c-2.6,0.8-5.1,1.8-7.7,2.5c-2.4,0.7-3.9,2.6-2.9,4.5c1.6,3.1,2.9,7.3,6.8,7.9
		c3,0.5,1.9-2.9,2.2-4.7c0.3-1.8,1.7-2.6,2.9-3.6c4.6-1.3,9.2-2.7,13.8-3.8c1.4-0.3,3.5-0.1,4.5,0.7c1.3,1.2,0.1,3-0.7,4.4
		c-2.6,4.3-5.3,8.5-7.9,12.8c-2.1,2.5-3.3,5.3-3.9,8.5c-5.1,4.3-5.5,10.9-7.7,16.5c-1,2.4,0.6,4.8,3,5.4c2.3,0.6,2.6-1.7,3.4-3.4
		c2.4-5.3,5.2-10.5,7.9-15.8c0.2-3.8,4.1-6,4.5-9.8c5-6,9.1-12.5,12.4-19.6c4.6-3.8,10.1-5.3,15.7-6.8c2.3-0.1,4.6-0.2,6.9-0.2
		c3.8,1,7.1-1.1,10.5-2.1c1.4-0.4,3.7-0.6,3.2-2.8c-0.4-1.8-2.6-1.8-4.1-1.8c-3.6-0.1-7.3,0-11,0.1c-2.5-1.2-7,2.6-7.7-3.1
		c0.3-0.8,0.6-1.6,0.9-2.3c1.6-1.6,3.1-3.2,4.7-4.8c0.1-0.1,0.3-0.3,0.3-0.4c0-0.3-0.2-0.5-0.3-0.8c1,0.1,1.5-0.4,1.7-1.3
		c0.2-0.4,0.4-0.9,0.6-1.3c2.5-2.3,4.1-5,4.8-8.4c7.3-6.2,11.4-14.6,15.8-22.8c1-1.9-0.2-4.1-2.3-5.2c-2.7-1.5-4.4,0.1-5.7,2.2
		c-5.8,9.4-11.5,18.9-17.2,28.4c-2.6,1.7-4.4,4-5.4,7c-0.4,0.5-0.9,1-1.3,1.5c-2.2,1.8-3.4,4.2-4.5,6.7c0,0,0.1-0.1,0.1-0.1
		C403.1,255.9,402.7,256.5,402.3,257z M353.7,179l-0.1,0.1c-1.8,0.3-3.2,1.1-4.3,2.6c-1.4,0.5-2.7,1.1-4.1,1.6
		c-3.5,1.7-7.6,2-10.4,5.1c-0.4,0-0.6,0.2-0.8,0.5c-0.5,0.4-1,0.8-1.6,1.1c-1.3,0.6-2.7,1.2-4,1.7c-1.8,0.3-3.4,0.9-4.5,2.4
		c-0.5,0-0.8,0.2-1.1,0.6c-4.7,1.9-9.5,3.8-14.2,5.7c-1.8,0.8-3.5,1.7-5.3,2.5c-1.2-0.2-2.2,0.1-2.9,1.1c-4.1,1.2-8.2,2.9-12.4,3.7
		c-9,1.7-16,8.7-25.3,9.4c-0.5,0.3-1,0.5-1.5,0.8l0,0c-7.1,2.1-14.6,2.8-21,7c-0.9,0.2-1.8,0.5-2.6,0.7c-0.6,0.2-1.3,0.4-1.9,0.6
		c-3.3,0.2-6.3,1.6-9.2,3c-3,0.3-5.8,1.3-8.4,2.8c-0.5-0.2-0.9-0.1-1.3,0.2c-6.1,1-6.3-1.7-3.4-5.8c5-7,10-13.9,15.3-20.6
		c10.2-13.2,17.7-28.2,27.2-41.9c6.4-9.3,11.4-19.6,13.9-30.8c0.6-2.7,0.8-6.5-2.5-7c-3.8-0.7-2.9,3.2-3.3,5.5
		c-0.2,1.1-0.4,2.3-0.7,3.4c-6.2,19.4-18,35.8-28.7,52.7c-9.6,15.1-20.3,29.5-30.6,44.2c-5.3,4.9-8,11.6-12.6,17
		c-5.3,6-9.9,12.6-14,19.5c-8.9,7.2-14.1,17.4-21.3,26.1c-13.6,16.3-27,32.7-41,48.7c-10,11.4-19.7,23.1-29.6,34.7
		c2.4,1.3,3.7,0.6,4.9-0.7c3.7-4.2,7.2-8.4,11-12.5c14.7-15.7,28.7-32.1,42.2-48.9c12.6-15.6,26.6-30.1,37.5-47.1
		c6.2-4.3,9.1-10.9,12.7-17.1c3.2-3.3,6-7.6,10.8-8.2c5.2-0.7,9.2-3.4,13.4-5.9c3.8,0.9,6.8-0.8,9.8-2.6c5.5-0.1,10.2-3,15.3-4.6
		c6.1-2.2,13.2-1.5,18.1-6.7c2.3-0.6,4.7-1.2,7-1.8c0.6-0.2,1.2-0.5,1.8-0.7c1.6-0.3,3.3-0.2,4.7-0.8c11.7-5.2,24.4-8.1,36-13.6
		c12.1-5.7,25.3-9.4,36-17.8c10-7.8,22.3-12.3,31.6-21.1c15.1-8.1,26.6-20.4,37.3-33.2c8.5-10.1,14.9-21.7,16.8-35.1
		c0.1-0.9,0.2-1.8,0.3-2.6c1.7-3,1.6-6.1,0.1-9.2C433,69,422.7,56.8,407.8,47.5c-14.9-9.4-32.1-11.5-48.9-15
		c-0.4-1.2-1.1-1.4-2.1-0.8c-2.1,0.3-4.1,0.5-6.2,0.8c-1-0.1-1.9-0.2-2.9-0.3c-1.2-1.2-2.6-1.3-4.1-0.9c-0.5,0.1-0.9,0.1-1.4,0.2
		c-0.9,0-1.9,0.1-2.8,0.1c-0.5,0-0.9-0.1-1.4-0.1c-8.8-0.7-17.6-1.1-26.4,0.3c-4-1.1-7.6,0.7-11.4,1.2c-5.5,1.1-11.2,0.3-16.6,2.3
		c-4.7-1.3-9,0.6-13.5,1.6c-9.9,2.3-19.8,4.7-29.8,7.1c-2.5,0.2-5.1,0.3-7,2.3c-1.9,0.3-3.9,0.1-5.5,1.5c-0.9,0-1.9-0.2-2.7,0.1
		c-20,7.5-40.2,14.4-58.7,25.3c-0.9,0.4-1.8,0.9-2.7,1.3c-1.2-0.2-2.2-0.1-2.9,1c-1.9,1-4.3,0.9-5.7,2.9c-3.7,2.4-8,4-11,7.5
		c-1.7,0.4-3.4,0.6-4.5,2.2c-4.6,2.8-9.2,5.5-13.7,8.3c-1.1,0.8-2.1,1.6-3.2,2.5c0,0-0.1,0-0.1,0c-12.2,7.7-24.1,15.7-34.6,25.5
		c-12.9,9.3-24.7,19.8-34.7,32.3c-6.7,8.3-13.4,16.6-18.2,26.2c0,0,0.1,0,0.1,0c-0.6,0.5-1.2,1-1.9,1.5c-1.7,1.6-2.7,3.6-3.4,5.8
		c-1.8,1.9-2.4,4.2-2.9,6.8c-2.5,11.8,2.2,21,9.7,29.4c2.6,4.2,5.8,7.8,11.7,9.9c-2-6.3-5.5-10.1-9-13.9c-7.3-9.5-7.8-19.9-3.7-30.7
		c2-1.4,3.1-3.4,3.7-5.7C43,176.4,50,169.4,56.3,162c10.9-12.8,22.8-24.5,36.4-34.4c4.2-3.4,8.2-7.2,12.8-10
		c6.5-3.8,12-8.9,18.1-13.2c1.3-0.8,2.6-1.7,3.9-2.5c0.9-0.4,1.7-0.8,2.6-1.2c3.3-1.3,5.9-3.7,8.6-5.9c0.5-0.3,1.1-0.6,1.6-0.9
		c3.6-2,7.3-4,10.9-6c0.6-0.3,1.1-0.6,1.7-1c9.1-6.3,18.8-11.6,29.1-15.8c12.1-4.9,24.1-10,36.1-15c1-0.2,1.9-0.5,2.9-0.7
		c0.5-0.2,1.1-0.4,1.6-0.6c3.6,0.3,6.7-1.1,10-2.2c7.2-2.3,14.4-5.2,21.8-6c11-1.2,21.4-4.8,32.4-5.7c6.8-0.7,13.7-1.3,20.5-2
		c3.3,0.1,6.7,1,9.9-0.9c13-0.8,25.9,0.2,38.9,0.8c2.3,0.2,4.5,0.4,6.8,0.6c1.5,1.8,3.9,1.9,5.7,2c9,0.2,17.1,3.9,25.1,7.1
		c9.4,3.7,18.2,8.6,24.8,16.9c8.1,10.2,9.4,21.6,7.4,33.9c-4.5,16.3-13.8,29.7-25.3,41.9c-7,7.4-15.7,12.7-22.4,20.3
		c-7.4,6.1-15.5,11.1-23.5,16.3C354.5,178.3,354.1,178.7,353.7,179z M795.8,88.3c-1.2,0.5-1.4,1.6-1.5,2.7
		c-9.8,11.6-16.5,25.2-24.8,37.8c-0.3,0.2-0.5,0.5-0.4,0.9c-0.5,0.6-0.9,1.2-1.4,1.8c-4.1,3.4-8.3,6.7-12.4,10.1
		c-5.8,0.7-8.6,5.9-13.1,8.7c-11.2,6.9-22.1,14.3-33.1,21.5c-4,0.2-5.7,3.6-8.3,5.8l0,0c-2.7,0.8-5.6,1.2-7.3,3.9c0,0,0,0,0,0
		c-2.3,1.4-4.6,2.7-6.9,4.1c-3.5,1.9-7.2,3.5-9.9,6.7c-13.9,8.1-27.8,16.2-41.7,24.3c-0.5,0-0.9,0.1-1.2,0.5
		c-3.6,2.4-8,3.4-11.2,6.6c-0.9,0.6-1.9,1.1-2.8,1.7c-0.6,0.3-1.2,0.6-1.8,0.8c-2.5,0.2-4.7,1.1-6.7,2.5c-8.4,1.7-16.1,7.3-25.4,4.7
		c-2.4-0.6-4.8-0.8-5.7,2.1c-1,3.4,1.6,4.2,4.1,4.9c8.9,4.9,16.5,0.3,24.3-3.2c1.1,0.1,2.2,0.1,2.8-1.1c0.5-0.2,1-0.4,1.5-0.7
		c0.4-0.2,0.9-0.5,1.3-0.7l0,0c1.5,0,3.2,0.3,4.2-1.3c1.4-0.9,2.9-1.7,4.3-2.6c4.5-1.1,7.5-4.7,11.2-7.1c0,0-0.1,0-0.1,0
		c0.9-0.6,1.8-1.2,2.6-1.8c15.6-7.6,30.3-16.9,44.9-26.2c4.3-1.4,7.6-4.4,10.8-7.4c1-0.4,1.9-0.7,2.9-1.1
		c19.3-10.4,36.6-24.1,56.7-35.2c-1,7.5-6.1,10.4-8,15.4c-2.2,2.1-4.2,4.2-5.8,6.9c-11.5,19.2-25.2,36.9-38.2,55
		c-7.2,10.1-14.4,20.1-21.6,30.2c-2.1,2.7-4.1,5.5-6.2,8.2c-4.7,6.3-10.8,11.6-14.6,18.7c-2.1,1.3-3.6,3.2-4.4,5.5
		c-1.7,0.9-2.7,2.2-2.9,4.1c-0.4,0.4-0.8,0.8-1.3,1.2c-1.9,1.9-4.5,3.2-5.5,5.9c-0.4,0.5-0.8,1-1.2,1.6c-2.2,2-5.1,3.5-5.5,7
		c-1.7,2.5-5.7,3.9-4,8.1c-1.6,2.4-4.6,3-6.7,5.3c-11,11.9-20.7,24.8-32,36.5c-17,17.7-34,35.3-52.9,51
		c-14.2,11.8-29.8,21.8-44.7,32.7c-1.4,0.2-2.9,0-3.8,1.6c-1.5,0.9-3,1.8-4.5,2.7c-7.2,4-14.9,6.8-22.5,10
		c-7.8,3.3-16.2,5.2-23.5,9.6c-5.3,1.9-11.2,2-16.3,5c-6.1,1.3-12.1,2.5-18.2,3.8c-0.9,0.1-1.8,0.2-2.7,0.3
		c-6.2,1.4-12.7,1.1-18.8,3.4c-1.5,0-2.9,0-4.4,0c-1.3-1-2.6-1-3.9,0c-1.4-0.1-2.8-0.1-4.2-0.2c-1.6-1.1-3.2-0.8-4.7,0.1
		c-1.5-0.2-3-0.4-4.6-0.7c-0.9-0.1-1.8-0.1-2.8-0.2c-5.9-0.8-11.6-2.5-17.2-4.8c-2.2-1.7-4.7-2.6-6.9-4.9
		c-5.5-5.7-7.3-12.5-8.2-19.9c1.9-7,3.9-14,5.8-20.9c4.4-6.6,5.7-14.5,9.6-21.4c3.5-6.3,9-11.3,11.1-18.3c0.5-1.5,3.1-3.4,0.4-4.6
		c-2-0.9-2.8,1.7-4,3.1c-3.1,3.8-4.8,8.3-7.4,12.4c-5.1,8.1-12.6,15-14.1,25.1c-3.9,6.8-5.5,14.2-6.6,21.8
		c-1.8,13.4,2.9,24.1,13.7,32.1c2.2,1.2,4.3,2.8,6.6,3.6c17.5,6.6,35.4,5.8,53.5,2.7c11.1-1,21.9-3,31.9-8c0.9,0,1.9-0.1,2.8-0.1
		c2.2-0.3,4.4-0.4,6-2.2c0.4,0,0.8-0.1,1.1-0.5c0.9-0.4,1.8-0.7,2.7-1.1l0.1-0.1c16.9-5,33.2-11.4,47.6-21.9c0.9-0.1,2,0.4,2.7-0.7
		c2.4-1.1,4.8-2.3,7.1-3.4c1.9-0.9,4-1.4,5.6-2.7c13.1-10.4,27.5-19.2,40.1-30.4c14.7-13,29.4-26,42.7-40.3
		c16.4-17.7,33.1-35.3,46.9-55.3c5.5-0.3,11.3,1.9,16.5-1.6c13.2-2.9,23.4-11.5,35-17.6c0.8-0.4,1-1.9,1.5-3
		c2.7,0.3,4.4-0.9,5.3-3.3c4.7-1,2.3,2.8,3,4.5c-0.5,0.9-0.9,1.9-1.4,2.8c-5.9,6.8-5.8,11.8,0,15.7c1.8,1.2,3.8,2.1,5.9,1.1
		c2.5-1.2,1.2-3.6,1.5-5.6c0.4-2.7-2.9-4.3-1.9-7.1c1.1-0.4,1.4-1.4,1.6-2.5c0.9-1.5,1.8-2.9,2.7-4.4l0,0c0.8-0.2,1.2-0.7,1-1.5
		c7.9-8.6,13.9-18.8,22.5-26.8c2.6-1.2,2.2-3.1,1.1-5.1c-0.7-1.2-1.9-2.4-3.3-1.2c-2.4,2.1-6.3,1.7-7.9,4.9
		c-0.4,0.4-0.8,0.8-1.2,1.2c-5.3,4.2-10.6,8.4-15.8,12.6c-5,2.6-10.9,3.9-14.7,8.7c-1.6,0.2-1.8,1.4-2,2.6c-0.7,0.1-1.4,0.2-2.2,0.4
		c-3.1,1.2-5.9,3.2-8.8,4.8c-5.8,3.1-10.9,7.7-17.7,9c-1.5-3.3,1.2-5.1,2.7-7.3c3.7-3.2,7.5-6.3,11.2-9.5c1.3,0.3,2.1-0.1,2.5-1.4
		c1.5-1.3,3.1-2.6,4.6-3.9c1.1-0.2,2.1-0.4,2.4-1.7c0.4-0.2,0.6-0.5,0.5-0.9c16.8-11.4,31.8-25.2,47.6-37.9
		c27.1-21.9,53-45.1,79.3-68c12.2-10.6,24-21.6,35.9-32.6c9.1-8.4,18.1-17,27.1-25.5c12-12,25.7-22.2,35.9-36
		c1.5-0.1,2.2-1.2,2.9-2.3c5.6-5.5,11.6-10.6,16.7-16.5c9.9-11.4,21.3-21.7,28.2-35.5c4.5-4,5.3-10.3,9.2-14.5c2.6-2.8,1.4-4.3-1-6
		c-2.8-2-4.6-1.3-6,1.6c-2.5,4.9-5.1,9.8-7.6,14.8c-8.1,10.3-15,21.5-24,31.1c-5.8,6.2-11.2,12.7-16.9,19c-1.6,1.3-3.1,2.7-4.6,4
		c-6.9,7.1-13.7,14.2-20.6,21.2c-4.1,2.4-7.6,5.3-9.6,9.7l-0.1,0.2c-0.4,0.4-0.9,0.8-1.3,1.2l-0.1,0.1c-11.7,7.4-20,18.6-30.6,27.4
		c-14.3,11.9-27.1,25.4-41.1,37.6c-13.1,11.5-26.4,23-40,34c-15.5,12.4-30,25.9-45.1,38.7c-9.3,7.8-19.2,15.1-28.8,22.6
		c-0.5,0.4-1,0.8-1.5,1.1c-1.9,1.2-3.4,2.7-4.5,4.7c-0.8,0.4-1.6,0.8-2.4,1.3c-1.5,0.3-2.6,1.1-3.2,2.5c-2.1,1.3-4.3,2.6-6.4,3.9
		c-0.3-0.9-0.5-1.8-0.8-2.8c3.5-7.5,11.1-12.2,13.9-20.1c2.4-0.4,3-2.7,4.2-4.3c14.3-19.3,28.8-38.4,42.7-57.9
		c6.7-9.4,13.8-18.5,18.9-28.9c3.9-5.7,7.8-11.4,11.7-17.1c6.9-8.6,13.3-17.7,22.1-24.7c0.3-0.2,0.3-0.9,0.4-1.3
		c8.5-2.3,14-9,20.4-14.4c1.4,0,2.3-0.9,3.1-2c0.5-0.6,1.1-1.2,1.6-1.8c5.4-3.1,9.6-7.8,14-12.2c13.6-13.4,22-29.2,21.5-48.9l0-0.1
		c0.6-1.3-0.2-2.1-1-2.9c-3.8-5.3-7-5.4-12.8-0.4c-5.2,4.6-10,9.6-13.7,15.5c-1,1.4-2,2.7-3,4.1c-0.5,0.7-1.1,1.4-1.6,2.1
		c-0.3,0.7-0.7,1.5-1,2.2c-5.5,3.2-7.3,8.8-9.6,14.2C797.2,85.3,796.3,86.6,795.8,88.3z M306.1,307.3
		C306.1,307.3,306.1,307.3,306.1,307.3c0-1.3,0-2.6,0.1-4c6.4-0.2,12.8-1.4,19,1.6c7.2,3.5,7.9,9.4,1.5,14.4
		c-2.2,1.7-4.4,3.3-6.6,4.9c-10.9,5.7-22.4,8.9-34.9,8.1c0.1-1.3,0.2-2.5,0.2-3.8c3.7-1.1,7.1-2.5,9-7.3c-4.7,1.3-8.9,1.4-12.3,4.1
		c-3.2,1.7-6.9,3.3-6.3,7.9c0.7,4.8,4.8,7.8,8.5,7.8c6.3,0.1,12.9,1.3,18.9-2c8.1-1.5,15.6-4,21.1-10.6c6.6-1.3,14-7.9,14.9-13.7
		c1.2-7.4-3.3-11.9-9.1-14.9c-11.8-6.1-24.1-6.6-36.6-2.3l-0.1,0.1c-0.4,0.4-0.9,0.8-1.3,1.3c-1.1,0.1-2.1,0.3-3.2,0.4
		c-3.3,0.2-6.2,1.3-8.5,3.6c-2.1,5.1,1.1,8.1,4.9,9.6c7.1,2.8,14.2,2.3,20.6-2.5c1.2,0.1,2.5-0.1,2.3-1.6
		C308.2,307.4,307.1,307.2,306.1,307.3z M756.9,318.3c-0.5-0.5-1-1-1.5-1.5c-1.4-2.8-3.9-3.4-6.4-2.1c-1.7,0.9-2.7,3-1.8,4.8
		c2,3.6,4.4,8,8.6,8.2c4.5,0.2,10.1-0.2,11.6-6.5c0.2-0.8-0.1-1.3-1-1.4l0,0C763.4,318.7,759.8,320.4,756.9,318.3
		C756.8,318.3,756.9,318.3,756.9,318.3z M293.5,266.7c0.4-0.4,0.8-0.9,1.3-1.3c1.9-1.5,3.8-2.9,5.7-4.4c2.3-1.1,3.9-2.6,4.5-5.2
		c4-1,6.1-4.6,9.2-6.9c1.5-1,3.1-1.9,4.6-2.9c2.5-1.8,5.5-3.8,2.7-7.2c-2.6-3.2-5.6-1.3-7.8,0.9c-13.8,13.5-30.6,23.2-45.1,35.8
		c-14,10-28.1,19.9-42.1,29.9c-10.7,5.8-19.8,13.8-29.3,21.3l0,0c-4.6,2.8-9,6-12.8,9.8c-9.2,7.6-20,13.1-27.5,22.7
		c-1.3,1.7-3.7,3.4-1.2,5.9c2.3,2.3,4.2,0.8,6.1-0.6c3.2-2.3,5.1-5.8,8.2-8.3c10.3-8.4,21.6-15.7,30.4-26c6.7-2,11.1-7.4,16.5-11.2
		c12.4-6.3,22.7-15.7,34.2-23.3c3.6-2.3,6.9-6,12-3.5c-1.5,1.8-3,3.6-4.4,5.3c-7.1,7.4-12.2,16.3-19.8,23.4c-3,2.8-6,5.8-6.8,10.1
		c-3.4,2.8-4.6,6.9-5.4,10.8c-1.1,5.8,0.8,11,6.1,14.3c4.8,3,9.8,2.3,14.5-0.2c1.3-0.7,3.1-1.6,2.8-3.6c-0.4-2.2-2.3-1.8-3.9-1.8
		c-12.1-0.5-12.1-0.6-11-12.1c0.1-0.4,0.2-0.9,0.4-1.3c0.5-0.7,1.1-1.3,1.6-2c7.7-9.9,15.5-19.9,23.2-29.8c2.3-2.5,4.6-4.9,6.9-7.4
		c2.6-1.1,3.5-3.5,4.6-5.8c6.9-8,13.8-15.9,20.7-23.9C292.8,267.5,293.1,267.1,293.5,266.7z M487.7,276.8L487.7,276.8
		c5.4-3.4,10.8-6.8,16.1-10.3c1.6-1.1,2.7-2.7,1.5-4.7c-0.9-1.5-2.3-1.7-3.5-0.6c-5,4.6-12.4,5-17.1,10.1c-3.9,2.6-7.9,5.3-11.8,7.9
		c-5.9,3.9-11.9,7.8-17.9,11.6c-3,1.9-5.7,6.5-9.4,4c-3.1-2.1-1-6.8-1.1-10.4c1-1,1-2.3,0.7-3.6c0-1.4,0.1-2.8,0.1-4.2
		c0.3-2.4,0-5-2.3-6c-2.3-1-4.3,1.1-5.9,2.7c-5.2,5.1-10.3,10.4-15.4,15.5c-2.6,1.1-3.7,3.8-4.7,5.8c-2.6,5.8-7.7,10.6-7.6,17.6
		c0,1.9,0.2,3.8,2.4,4.5c2.4,0.7,3.6-1.2,4-2.9c1.6-7.7,7.1-13.3,10.3-20.1c1.2-1.3,2.3-2.7,3.6-3.9c1.4-1.4,2.5-3.7,4.8-3.1
		c2.7,0.7,1,3.5,1.7,5.2c-0.8,2.5-0.3,4.9,0.4,7.4c1.2,4.5,2.1,8.8,8.4,6.6c0.6-0.5,1.3-0.9,1.9-1.4c1.6,0.8,2.6-0.5,3.7-1.1
		c9.2-5.2,17.2-12.1,25.5-18.6c2.6-1.3,5.5-2.5,7.1-5.1C485.1,279.1,486.8,278.6,487.7,276.8z M364.3,229.6
		c-6.6-5.7-13.4-7.7-20.8-8.2c-2.2-0.2-3.9-0.7-5.5,1.4c-1.5,2-0.5,3.4,0.4,5c1.3,2.3,3.1,3.5,5.7,2.4c2.7-1.1,5.7-1.8,8,0
		C356.2,233.2,359.7,231.3,364.3,229.6z"/>
	<path class="st1" d="M679.6,278.3c1.1-2,2.6-3.5,4.5-4.7c0.2,1.3,0.4,2.8,2.2,2.8c0.5,0,1.4-0.6,1.5-1c0.3-1.7-1.1-2.3-2.2-2.9
		c9.6-7.5,19.4-14.8,28.8-22.6c15.2-12.7,29.7-26.3,45.1-38.7c13.7-11,26.9-22.4,40-34c14-12.3,26.8-25.8,41.1-37.6
		c10.6-8.8,18.9-20,30.6-27.4c-0.4,2.6-2.1,5.1-1.1,7.9c-9,8.5-18,17.1-27.1,25.5c-11.9,11-23.7,22-35.9,32.6
		c-26.3,22.9-52.2,46.1-79.3,68C712,258.9,697,272.6,680.2,284C680,282.1,679.8,280.2,679.6,278.3z"/>
	<path class="st2" d="M283.8,35.4c5.3-2,11.1-1.2,16.6-2.3c4.3,4.4,7.9,1.4,11.4-1.2c8.8-1.4,17.6-0.9,26.4-0.3
		c0.4,0.6,0.9,0.7,1.4,0.1c0.9,0,1.9-0.1,2.8-0.1c0.6,0.6,1,0.5,1.4-0.2c1.5-0.4,2.9-0.3,4.1,0.9c0.8,1.6,1.7,2,2.9,0.3
		c2.1-0.3,4.1-0.5,6.2-0.8c0.7,0.3,1.4,0.5,2.1,0.8c16.8,3.5,33.9,5.6,48.9,15c14.8,9.3,25.1,21.5,25.4,40.1c0,3.1-0.1,6.1-0.1,9.2
		c-0.1,0.9-0.2,1.8-0.3,2.6c-2.2,0-4.4,0-6.7,0c2-12.3,0.6-23.6-7.4-33.9c-6.6-8.4-15.4-13.2-24.8-16.9c-8.1-3.2-16.1-6.9-25.1-7.1
		c-1.8,0-4.2-0.1-5.7-2c2.3-0.6,3.1-2,0.3-2.5c-3.2-0.6-6.6-0.1-10.6-0.1c1.6,1,2.6,1.5,3.5,2.1c-13-0.6-25.9-1.7-38.9-0.8
		c-3.3,0.1-6.7-1-9.9,0.9c-6.8,0.7-13.7,1.3-20.5,2C283.2,40.6,283.8,37.9,283.8,35.4z M291.7,36.8c-0.1-0.2-0.1-0.4-0.2-0.6
		c-0.2,0-0.4,0.1-0.4,0.1c0,0.2,0.1,0.4,0.1,0.6C291.4,36.9,291.6,36.9,291.7,36.8z"/>
	<path class="st3" d="M496.8,445.1c14.9-10.9,30.5-20.8,44.7-32.7c18.9-15.7,35.9-33.3,52.9-51c11.2-11.7,21-24.6,32-36.5
		c2.1-2.2,5-2.8,6.7-5.3c0.9,0.1,1.7,0.2,2.6,0.3c-13.9,19.9-30.5,37.6-46.9,55.3c-13.3,14.3-28,27.3-42.7,40.3
		c-12.6,11.2-27,20-40.1,30.4c-1.6,1.2-3.7,1.8-5.6,2.7C499.6,446.9,498.4,445.8,496.8,445.1z"/>
	<path class="st4" d="M204,231.8c10.2-14.7,21-29.1,30.6-44.2c10.7-16.9,22.5-33.3,28.7-52.7c0.3-1.1,0.5-2.2,0.7-3.4
		c0.4-2.3-0.5-6.2,3.3-5.5c3.3,0.6,3.1,4.4,2.5,7c-2.6,11.2-7.5,21.4-13.9,30.8c-9.5,13.7-16.9,28.7-27.2,41.9
		c-5.2,6.8-10.3,13.7-15.3,20.6c-2.9,4.1-2.7,6.8,3.4,5.8C212.4,236.7,208.2,234.9,204,231.8z"/>
	<path class="st5" d="M334,188.9c0.1-0.3,0.4-0.5,0.8-0.5c5.4,2.2,8.8,0.5,10.4-5.1c1.4-0.5,2.7-1.1,4.1-1.6
		c2.9,1.6,3.3-1.1,4.3-2.6c0,0,0.1-0.1,0.1-0.1c0.4-0.3,0.8-0.7,1.2-1c8-5.2,16.2-10.2,23.5-16.3c0.1,2,0.1,4,0.2,6
		c-9.4,8.8-21.6,13.3-31.6,21.1c-10.8,8.4-23.9,12.1-36,17.8c-11.6,5.4-24.2,8.3-36,13.6c-1.4,0.6-3.1,0.6-4.7,0.8
		c-0.6,0.2-1.2,0.5-1.8,0.7c-2.3,0.6-4.7,1.2-7,1.8c0-1.9-0.1-3.8-0.1-5.7c0,0,0,0,0,0c0.5-0.3,1-0.5,1.5-0.8
		c9.3-0.7,16.3-7.7,25.3-9.4c4.2-0.8,8.3-2.4,12.4-3.7c1.9,2.1,2.5,0.7,2.9-1.1c1.8-0.8,3.5-1.7,5.3-2.5c6.6,2.6,10.4-1.5,14.2-5.7
		c0.3-0.4,0.6-0.6,1.1-0.6c2,0.2,4,0.3,4.5-2.4c1.3-0.6,2.7-1.2,4-1.7C333,189.7,333.5,189.3,334,188.9z"/>
	<path class="st6" d="M181.2,268.6c-10.9,17-24.9,31.5-37.5,47.1c-13.5,16.8-27.5,33.1-42.2,48.9c-3.8,4.1-7.4,8.3-11,12.5
		c-1.2,1.3-2.5,2-4.9,0.7c9.9-11.7,19.6-23.3,29.6-34.7c14-16,27.4-32.4,41-48.7c7.2-8.6,12.3-18.9,21.3-26.1
		C178.7,268.3,179.9,268.5,181.2,268.6z"/>
	<path class="st1" d="M746.6,171.9c-5.2,10.4-12.3,19.5-18.9,28.9c-13.9,19.6-28.4,38.7-42.7,57.9c-1.2,1.6-1.8,3.9-4.2,4.3
		c-1.6-0.7-2.1-2-2.3-3.5c7.2-10.1,14.4-20.1,21.6-30.2c13-18.2,26.7-35.8,38.2-55c1.6-2.7,3.6-4.8,5.8-6.9
		C744.3,169.3,743.7,171.6,746.6,171.9z"/>
	<path class="st1" d="M160.9,75.5c0.7-1.1,1.8-1.2,2.9-1c2,1.8,2.4,0.4,2.7-1.3c18.5-11,38.7-17.9,58.7-25.3c0.8-0.3,1.8,0,2.7-0.1
		c0.3,3.5-1.7,4.3-4.7,4.1c-2.9-0.1-4.9,1-5,4.2c-12,5-24,10.1-36.1,15c-10.3,4.1-20,9.5-29.1,15.8c-0.6,0.3-1.1,0.6-1.7,1
		c-3.6,2-7.3,4-10.9,6c-0.5,0.3-1.1,0.6-1.6,0.9c-2.7,2.2-5.3,4.6-8.6,5.9c-0.9,0.4-1.7,0.8-2.6,1.2c-1.3,0.8-2.6,1.7-3.9,2.5
		c-0.3-1.8-0.6-3.7-0.8-5.5c0,0,0.1,0,0.1,0c2.2,0.7,3.1-0.3,3.2-2.5c4.6-2.8,9.2-5.5,13.7-8.3c1.9,0.1,4,0.5,4.5-2.2
		c3-3.5,7.2-5.1,11-7.5C157.5,78.2,160.6,79.5,160.9,75.5z"/>
	<path class="st7" d="M378.6,167.7c-0.1-2-0.1-4-0.2-6c6.7-7.6,15.4-12.9,22.4-20.3c11.5-12.2,20.7-25.6,25.3-41.9
		c2.2,0,4.4,0,6.7,0c-1.9,13.5-8.3,25-16.8,35.1C405.2,147.4,393.7,159.6,378.6,167.7z"/>
	<path class="st8" d="M746.6,171.9c-2.9-0.3-2.3-2.6-2.6-4.4c1.8-4.9,6.9-7.9,8-15.4c-20.1,11.1-37.4,24.8-56.7,35.2
		c-2.1-1.5-1.1-3.9-1.6-5.8c0,0,0,0,0,0c3.2,0.3,6.7,0.9,7.3-3.9c0,0,0,0,0,0c3.9-0.3,8.4,0.2,8.3-5.8c11-7.2,21.9-14.6,33.1-21.5
		c4.5-2.8,7.3-8,13.1-8.7c2.4,4.1,3.9,8.4,3,13.3C754.4,160.5,750.5,166.2,746.6,171.9z"/>
	<path class="st9" d="M304.9,255.9c-0.5,2.6-2.2,4.1-4.5,5.2c0-2.1,0.3-4-3.2-3.2c-6.2,1.4-5.2,5.7-4.8,10
		c-6.9,8-13.8,15.9-20.7,23.9c-0.8-3.2-6.2-6.8-3.4-8.7c5.3-3.5,0-5.3,0.1-7.7c14.5-12.6,31.4-22.2,45.1-35.8
		c2.2-2.1,5.2-4.1,7.8-0.9c2.8,3.4-0.2,5.4-2.7,7.2c-1.5,1.1-3.1,2-4.6,2.9C305.6,248.6,303.8,250,304.9,255.9z"/>
	<path class="st1" d="M841.4,49.6c0.5,19.7-7.9,35.5-21.5,48.9c-4.4,4.3-8.5,9-14,12.2c-0.5,0.6-1.1,1.2-1.6,1.8
		c-0.7,1.1-1.6,1.9-3.1,2c-2.8-2.9-5.6,4-8.4-0.1C804,104,816.8,95.1,825,81.9c5.7-9.2,11.9-18.3,8.4-30
		C835.7,49.6,838.4,49,841.4,49.6z"/>
	<path class="st5" d="M320.1,324.2c2.2-1.6,4.4-3.2,6.6-4.9c6.4-5,5.7-10.9-1.5-14.4c-6.1-2.9-12.6-1.8-19-1.6
		c-1.5-0.1-2.9-0.3-4.4-0.4c0.2-6.2-5-4.2-8.1-5.3c12.5-4.3,24.8-3.8,36.6,2.3c5.8,3,10.3,7.5,9.1,14.9c-0.9,5.7-8.4,12.3-14.9,13.7
		C322.9,327,321.5,325.6,320.1,324.2z"/>
	<path class="st5" d="M907.5,75.7c5.6-6.3,11.1-12.8,16.9-19c9-9.6,15.9-20.8,24-31.1c2.9,0.1,2.1,4.8,5.4,4.2
		c-6.9,13.8-18.3,24.1-28.2,35.5c-5.1,5.9-11.1,11-16.7,16.5C908.5,79.7,909.4,77.4,907.5,75.7z"/>
	<path class="st8" d="M268.4,275.4c-0.1,2.4,5.2,4.2-0.1,7.7c-2.9,1.9,2.6,5.5,3.4,8.7c-1.1,2.3-2.1,4.7-4.6,5.8
		c-0.5-2.5-0.9-5.1-4.1-5.6c-5.1-2.5-8.5,1.2-12,3.5c-11.5,7.6-21.8,17-34.2,23.3c-0.2-4.2,3.7-5,6.2-6.7c2.7-1.8,4-3.6,3.4-6.8
		C240.3,295.3,254.4,285.4,268.4,275.4z"/>
	<path class="st10" d="M445.1,305.9c-6.3,2.3-7.2-2.1-8.4-6.6c-0.7-2.5-1.2-4.9-0.4-7.4c1.1-1.1,0.4-2.9,1.1-3.8
		c3-3.6,0-11.3,7.9-11.5c0,1.4-0.1,2.8-0.1,4.2c-1.1,1-1,2.3-0.7,3.6c0.1,3.6-1.9,8.3,1.1,10.4c3.7,2.5,6.4-2.1,9.4-4
		c6-3.9,11.9-7.8,17.9-11.6c3.6,0.4,3.5,3,3.3,5.6c-8.3,6.5-16.3,13.4-25.5,18.6c-1.1,0.6-2.1,1.9-3.7,1.1c0-1.9,0.2-3.9-2.5-4
		c-0.8,0-2.2,0.4-2.3,0.8C441.7,303.6,442.7,305.2,445.1,305.9z"/>
	<path class="st2" d="M382,481.4c1.5,0,2.9,0,4.4,0c2.5,0.1,5,0.3,7.4,0.1c4-0.3,8.8,1.4,11.4-3.6c0.9-0.1,1.8-0.2,2.7-0.3
		c2.1,3.8,0.7,5.9-3.3,6.8c-2.2,0.5-4.3,1.4-6.4,2.1c-18,3.1-36,3.9-53.5-2.7c-2.3-0.9-4.4-2.4-6.6-3.6c3.2-0.1,3.6-4.2,6.6-4.6
		c5.5,2.3,11.2,4,17.2,4.8c0.8,1.3,1.8,1.3,2.8,0.2c1.5,0.2,3,0.4,4.6,0.7c1.6,0,3.1-0.1,4.7-0.1c1.4,0.1,2.8,0.1,4.2,0.2
		C379.4,481.5,380.7,481.4,382,481.4z"/>
	<path class="st1" d="M92.7,127.6c-13.6,9.9-25.6,21.6-36.4,34.4c-6.3,7.4-13.3,14.4-16.7,23.9c-1.4-1-2.2-3-4.3-3
		c4.8-9.6,11.5-17.9,18.2-26.2c10-12.4,21.8-23,34.7-32.3C90.4,124.5,92.6,124.6,92.7,127.6z"/>
	<path class="st5" d="M397.9,273.7c-3.3,7.1-7.4,13.6-12.4,19.6c-2.5,0.1-4.9-0.2-7-1.5c2.6-4.3,5.3-8.5,7.9-12.8
		c0.8-1.4,2-3.2,0.7-4.4c-1-0.9-3.1-1.1-4.5-0.7c-4.6,1.1-9.2,2.5-13.8,3.8c-0.4-2.2-0.9-4.5-1.3-6.7c6.8-1.9,13.4-4.6,20.4-5.4
		c4.6-0.5,9.1-1.4,11.5-6c0.1,1.2,0.2,2.4,1.5,3c-0.6,3.8-4.1,2-6.1,3.3c-1.6,1-4.4,2.2-2.6,4.5C393.5,271.9,393.6,277,397.9,273.7z
		"/>
	<path class="st7" d="M218.2,56.2c0.1-3.3,2.1-4.4,5-4.2c3,0.1,5-0.6,4.7-4.1c1.6-1.3,3.6-1.2,5.5-1.5c3.5,2.7,5.7,1.6,7-2.3
		c9.9-2.4,19.8-4.8,29.8-7.1c4.4-1,8.8-2.9,13.5-1.6c0,2.5-0.5,5.3,3.2,5.6c-11,0.9-21.4,4.5-32.4,5.7c-7.4,0.8-14.6,3.7-21.8,6
		c-3.3,1-6.5,2.4-10,2.2c-0.5,0.2-1.1,0.4-1.6,0.6C220.1,55.7,219.2,56,218.2,56.2z"/>
	<path class="st8" d="M792.9,114.4c2.7,4.1,5.6-2.8,8.4,0.1c-6.4,5.4-11.8,12.1-20.4,14.4c-3.8-2-7.6,0-11.4-0.1
		c8.3-12.5,15-26.2,24.8-37.8c1.3,0.5,2.6,1,3.9,1.4c-2.7,7.4-8,13.4-11.4,20.4c-2.9,1.8-4.9,4.2-5.1,7.7c3.4-0.6,6-2.1,7.6-5.3
		C790.4,115,791.6,114.7,792.9,114.4z"/>
	<path class="st5" d="M200.2,329.9c-8.7,10.3-20,17.6-30.4,26c-3.1,2.5-5.1,6-8.2,8.3c-1.9,1.4-3.8,2.9-6.1,0.6
		c-2.5-2.5-0.2-4.2,1.2-5.9c7.5-9.6,18.3-15.2,27.5-22.7c7.2,0.5,10.2-4.4,12.8-9.8c0,0,0,0,0,0C199,326.9,200.2,327.9,200.2,329.9z
		"/>
	<path class="st9" d="M717.4,270.6c0.4-0.4,0.8-0.8,1.2-1.2c2.5,0.3,5,2.1,7.6-0.4c1.5-1.4,2.2,0.3,2.5,1.7
		c-8.6,8-14.7,18.1-22.5,26.8c-0.3,0.5-0.7,1-1,1.5c0,0,0,0,0,0c-3.3-2.8-4.7-10.2-11.3-4.5c-1,2.4-2.7,3.7-5.3,3.3
		c-0.5-1-1-2-1.6-3c0-1,0-1.9,0-2.9c3.7-4.8,9.6-6.1,14.7-8.7C709.2,285.6,716.6,279.7,717.4,270.6z"/>
	<path class="st2" d="M841.4,49.6c-3.1-0.6-5.8,0-8,2.2c-4.8,1.1-7.2,5.2-10.5,8.3c-8.8,8.1-14,19.1-22.7,27.3c-0.5-1-1-2.1-1.5-3.1
		c2.3-5.3,4.1-11,9.6-14.2c0.9-0.5,1.2-1.2,1-2.2c0.5-0.7,1.1-1.4,1.6-2.1c3,0.1,3.1-2,3-4.1c3.6-6,8.4-11,13.7-15.5
		c5.8-5.1,9-4.9,12.8,0.4c0.3,1,0.7,1.9,1,2.9C841.4,49.5,841.4,49.6,841.4,49.6z"/>
	<path class="st1" d="M681.6,195.8c-14.6,9.3-29.3,18.6-44.9,26.2c0-1.9,0.7-4.1-1.5-5.4c13.9-8.1,27.8-16.2,41.7-24.3
		C677.1,195.2,679.1,195.8,681.6,195.8z"/>
	<path class="st8" d="M442.4,469c7.4-4.4,15.7-6.3,23.5-9.6c7.6-3.2,15.3-6,22.5-10c1.4,0.7,1.8,1.9,1.9,3.3
		c-14.4,10.5-30.7,16.9-47.6,21.9C439.7,472.9,453,470.3,442.4,469z"/>
	<path class="st8" d="M232,330.7c0.8-4.3,3.8-7.3,6.8-10.1c7.5-7,12.7-16,19.8-23.4c2.9,2.1,1.3,5.1,1.7,7.7
		c-7.7,9.9-15.5,19.9-23.2,29.8C236.2,332.3,233.1,332.8,232,330.7z"/>
	<path class="st2" d="M414.7,240.3c5.7-9.5,11.4-19,17.2-28.4c1.3-2.1,2.9-3.7,5.7-2.2c2.1,1.2,3.3,3.4,2.3,5.2
		c-4.3,8.2-8.5,16.6-15.8,22.8c-2.9-0.8-4.5,1.8-6.8,2.7C416.4,240.4,415.6,240.4,414.7,240.3z"/>
	<path class="st11" d="M232,330.7c1.1,2,4.2,1.6,5,4c-0.5,0.7-1.1,1.3-1.6,2c-0.1,0.4-0.2,0.9-0.4,1.3c-1.1,11.6-1.1,11.6,11,12.1
		c1.6,0.1,3.5-0.4,3.9,1.8c0.4,2-1.4,2.9-2.8,3.6c-4.7,2.5-9.7,3.2-14.5,0.2c-5.3-3.3-7.2-8.5-6.1-14.3
		C227.3,337.6,228.5,333.5,232,330.7z"/>
	<path class="st12" d="M649.1,297.2c0.4-0.4,0.8-0.8,1.3-1.2c2.3,1.6,1.4,4,1.8,6.2c0.4,2.7-0.1,6.2,4.2,6.5c6.7-1.3,11.8-6,17.7-9
		c2.9-1.5,5.7-3.5,8.8-4.8c0.1,3.2-0.7,6.7-3.6,7.7c-9.2,3.2-15.7,11.5-25.6,13.1c-2.9-3.7-6.8,0.7-10.5-1.3
		c0.9-2.2,6.4-5.7-1.1-5.9c0.1-1.3,0.3-2.6,0.4-3.9c0.4-0.5,0.8-1,1.2-1.6C646.9,302.5,649.8,301.5,649.1,297.2z"/>
	<path class="st6" d="M331.1,426.4c1.5-10.1,9-17.1,14.1-25.1c2.6-4.1,4.3-8.7,7.4-12.4c1.2-1.4,2-4,4-3.1c2.6,1.2,0,3.1-0.4,4.6
		c-2.1,7-7.6,12-11.1,18.3c-3.8,6.9-5.2,14.8-9.6,21.4C332.9,430.2,331,429.4,331.1,426.4z"/>
	<path class="st11" d="M320.1,324.2c1.4,1.4,2.9,2.8,4.3,4.1c-5.5,6.6-13,9.2-21.1,10.6c-1.4-4-4.3-2-6.8-1.8
		c-4.6,0.5-9.1,0.3-11.2-4.9C297.6,333.1,309.1,329.9,320.1,324.2z"/>
	<path class="st5" d="M870.1,120c-1.1-2.8,0.6-5.3,1.1-7.9c0,0,0.1-0.1,0.1-0.1c0.4-0.4,0.9-0.8,1.3-1.2c0,0,0.1-0.2,0.1-0.2
		c4.7-1.7,9.2-3.7,9.6-9.7c6.9-7.1,13.7-14.2,20.6-21.2c2.8,0.2,3.3,2,3.1,4.3C895.8,97.8,882.1,108.1,870.1,120z"/>
	<path class="st3" d="M92.7,127.6c-0.2-3-2.3-3.1-4.5-3.1c10.5-9.9,22.4-17.9,34.6-25.5c0.3,1.8,0.6,3.7,0.8,5.5
		c-6.1,4.3-11.6,9.4-18.1,13.2C100.9,120.4,97,124.2,92.7,127.6z"/>
	<path class="st9" d="M769.5,128.8c3.8,0.1,7.6-1.9,11.4,0.1c-0.1,0.4-0.1,1.1-0.4,1.3c-8.8,6.9-15.2,16-22.1,24.7
		c0.9-4.8-0.6-9.1-3-13.3c4.1-3.4,8.3-6.7,12.4-10.1c0.5-0.6,0.9-1.2,1.4-1.8C769,129.3,769.1,129,769.5,128.8z"/>
	<path class="st8" d="M35.8,191.6c-4,10.9-3.6,21.2,3.7,30.7c0.1,2-0.1,3.9-2.8,4c-7.5-8.4-12.1-17.7-9.7-29.4
		c0.5-2.6,1.1-4.9,2.9-6.8C32.2,189.8,34,190.8,35.8,191.6z"/>
	<path class="st10" d="M344.7,475.7c-3,0.4-3.4,4.5-6.6,4.6c-10.9-8-15.6-18.6-13.7-32.1c2.6-0.7,3.8,1.2,5.2,2.8
		c0.9,7.4,2.7,14.2,8.2,19.9C340,473.1,342.5,474,344.7,475.7z"/>
	<path class="st8" d="M426.2,293.7c-3.2,6.8-8.7,12.5-10.3,20.1c-0.4,1.7-1.6,3.6-4,2.9c-2.2-0.6-2.4-2.5-2.4-4.5
		c-0.1-7,5-11.8,7.6-17.6c0.9-2.1,2.1-4.7,4.7-5.8C422.8,290.9,425.6,291.2,426.2,293.7z"/>
	<path class="st5" d="M426.2,293.7c-0.6-2.4-3.4-2.8-4.5-4.8c5.1-5.2,10.2-10.4,15.4-15.5c1.6-1.6,3.6-3.7,5.9-2.7
		c2.2,0.9,2.5,3.6,2.3,6c-7.9,0.1-5,7.8-7.9,11.5c-0.7,0.8,0,2.7-1.1,3.8c-0.7-1.7,1-4.5-1.7-5.2c-2.3-0.6-3.4,1.7-4.8,3.1
		C428.5,291,427.4,292.4,426.2,293.7z"/>
	<path class="st13" d="M204,231.8c4.2,3.1,8.4,5,12.8,0.4c0.4-0.3,0.8-0.4,1.3-0.2c0.1,1.8,1.5,3.6,0,5.4c-4.3,2.5-8.2,5.2-13.4,5.9
		c-4.8,0.7-7.6,5-10.8,8.2c-0.8-0.9-1.6-1.8-2.4-2.7C196,243.4,198.7,236.6,204,231.8z"/>
	<path class="st11" d="M364.3,229.6c-4.7,1.7-8.1,3.6-12.2,0.5c-2.3-1.7-5.3-1-8,0c-2.7,1.1-4.4-0.1-5.7-2.4c-1-1.6-1.9-3.1-0.4-5
		c1.6-2.1,3.3-1.5,5.5-1.4C351,222,357.7,223.9,364.3,229.6z"/>
	<path class="st13" d="M285.2,332.3c2.2,5.3,6.6,5.4,11.2,4.9c2.5-0.2,5.4-2.3,6.8,1.8c-6,3.3-12.7,2.1-18.9,2c-3.8,0-7.9-3-8.5-7.8
		c-0.6-4.6,3.1-6.1,6.3-7.9c1.8,0.4,3.3,1,3.3,3.2C285.3,329.8,285.3,331,285.2,332.3z"/>
	<path class="st8" d="M679.6,278.3c0.2,1.9,0.4,3.9,0.6,5.8c0,0.4-0.2,0.7-0.5,0.9c-1.1,0.1-2,0.5-2.4,1.7c-1.5,1.3-3.1,2.6-4.6,3.9
		c-1.1,0-2,0.4-2.5,1.4c-3.7,3.2-7.5,6.3-11.2,9.5c-1.5-3.4-0.6-8.3-5.7-9.5c0.8-2.3,2.3-4.2,4.4-5.5c1.3,0.2,2.7,0.3,4,0.5
		c-0.1,1.2-2,3.7,1.3,2.7c1.7-0.5,4-1.2,4.6-3.6c2.1-1.3,4.3-2.6,6.4-3.9c1.9,0.2,3.1-0.5,3.2-2.5
		C678,279.1,678.8,278.7,679.6,278.3z"/>
	<path class="st2" d="M953.8,29.8c-3.3,0.6-2.6-4.2-5.4-4.2c2.5-4.9,5.1-9.8,7.6-14.8c1.5-2.9,3.3-3.6,6-1.6c2.4,1.8,3.7,3.2,1,6
		C959.1,19.5,958.3,25.8,953.8,29.8z"/>
	<path class="st3" d="M200.2,329.9c-0.1-2.1-1.3-3.1-3.2-3.4c9.5-7.5,18.6-15.4,29.3-21.3c0.7,3.2-0.7,5-3.4,6.8
		c-2.5,1.6-6.3,2.4-6.2,6.7C211.3,322.5,206.9,327.9,200.2,329.9z"/>
	<path class="st1" d="M398.3,486.6c2.1-0.7,4.2-1.6,6.4-2.1c4-0.9,5.4-3,3.3-6.8c6.1-1.3,12.1-2.5,18.2-3.8c-3.5,5.7,2,3.7,4,4.7
		C420.1,483.6,409.3,485.6,398.3,486.6z"/>
	<path class="st3" d="M661.7,286.9c-1.3-0.2-2.7-0.3-4-0.5c3.8-7.1,9.8-12.4,14.6-18.7c2.1-2.7,4.1-5.5,6.2-8.2
		c0.2,1.5,0.7,2.9,2.3,3.5c-2.8,7.9-10.4,12.6-13.9,20.1C665.1,284.4,663.4,285.6,661.7,286.9z"/>
	<path class="st11" d="M700.8,305.9c-1,2.8,2.3,4.5,1.9,7.1c-0.3,1.9,1,4.4-1.5,5.6c-2,1-4.1,0.1-5.9-1.1c-5.9-3.9-5.9-8.9,0-15.7
		C698.7,301.2,699.8,303.4,700.8,305.9z"/>
	<path class="st11" d="M381.1,303.1c-2.6,5.3-5.4,10.5-7.9,15.8c-0.8,1.7-1.1,4-3.4,3.4c-2.4-0.6-3.9-3-3-5.4
		c2.3-5.6,2.7-12.2,7.7-16.5C376.6,301.5,378.3,303.6,381.1,303.1z"/>
	<path class="st13" d="M306,310c-6.4,4.9-13.5,5.3-20.6,2.5c-3.8-1.5-7-4.5-4.9-9.6c2.4,0.1,5,0.2,6.1,2.5c4.3,8.8,8.4,4.6,12.7,0.1
		c2.3,0.6,4.5,1.2,6.8,1.7c0,0,0,0,0,0C306.1,308.2,306,309.1,306,310z"/>
	<path class="st1" d="M261.3,217.9c0,1.9,0.1,3.8,0.1,5.7c-5,5.2-12.1,4.5-18.2,6.7c-0.3-2.2-1.1-4.1-3-5.3
		C246.7,220.7,254.3,220,261.3,217.9z"/>
	<path class="st13" d="M767.5,321.2c-1.5,6.4-7.1,6.7-11.6,6.5c-4.3-0.2-6.7-4.6-8.6-8.2c-0.9-1.8,0.1-3.9,1.8-4.8
		c2.5-1.3,5-0.7,6.4,2.1c0.5,0.5,1,1,1.5,1.5c0,0-0.1-0.1-0.1-0.1c2.5,4.8,5.6,6.1,9.7,1.6c0,0,0,0,0,0
		C766.8,320.3,767.1,320.7,767.5,321.2z"/>
	<path class="st13" d="M642,308.5c7.5,0.2,2,3.7,1.1,5.9c3.6,2,7.5-2.4,10.5,1.3c-0.5,0.9-1,1.8-1.5,2.7c-5.2,3.5-11,1.3-16.5,1.6
		c-0.9-0.1-1.7-0.2-2.6-0.3c-1.7-4.2,2.3-5.6,4-8.1C639.1,311.4,640.3,309.5,642,308.5z"/>
	<path class="st8" d="M584.6,240.5c-2.5-0.7-5.1-1.5-4.1-4.9c0.8-3,3.3-2.8,5.7-2.1c9.2,2.5,16.9-3.1,25.4-4.7
		c-0.4,1.1-0.9,2.1-1.3,3.2c-2.7,1.8-5.2,4.5-8.6,4.1C595.2,235.3,590.1,238.6,584.6,240.5z"/>
	<path class="st2" d="M484.7,271.2c4.6-5.1,12.1-5.5,17.1-10.1c1.2-1.1,2.6-0.8,3.5,0.6c1.2,2.1,0.1,3.6-1.5,4.7
		c-5.3,3.5-10.8,6.9-16.1,10.4C487.8,274.4,486.5,272.7,484.7,271.2z"/>
	<path class="st11" d="M652,318.4c0.5-0.9,1-1.8,1.5-2.7c9.9-1.6,16.4-9.9,25.6-13.1c2.9-1,3.7-4.5,3.6-7.7c0.7-0.1,1.4-0.2,2.2-0.4
		c0.7,0.1,1.4,0.2,2.1,0.3c0.5,1,1,2,1.6,3c-0.5,1-0.7,2.5-1.5,3C675.5,306.8,665.2,315.5,652,318.4z"/>
	<path class="st10" d="M584.6,240.5c5.5-1.9,10.6-5.3,17-4.5c3.4,0.4,5.9-2.3,8.6-4.1c2,0.1,4.1,0,4.3,2.9c0,0,0,0,0,0
		c-0.4,0.2-0.9,0.5-1.3,0.7c-0.5,0.2-1,0.4-1.5,0.7c-0.9,0.4-1.9,0.7-2.8,1.1C601.1,240.8,593.5,245.4,584.6,240.5z"/>
	<path class="st4" d="M329.6,451c-1.4-1.6-2.6-3.4-5.2-2.8c1.2-7.6,2.7-15.1,6.6-21.8c0,3,1.8,3.8,4.4,3.6
		C333.5,437,331.6,444,329.6,451z"/>
	<path class="st13" d="M397.9,273.7c-4.3,3.2-4.4-1.8-5.6-3.3c-1.9-2.3,0.9-3.5,2.6-4.5c1.9-1.2,5.5,0.6,6.1-3.3
		c2.3-0.4,4.6-0.9,6.9-1.3c-0.5,4.4,1.5,6.2,5.8,5.6C408,268.4,402.5,269.9,397.9,273.7z"/>
	<path class="st9" d="M367.5,271.1c0.4,2.2,0.9,4.5,1.3,6.7c-1.2,1-2.6,1.8-2.9,3.6c-0.3,1.8,0.8,5.2-2.2,4.7
		c-3.9-0.6-5.2-4.8-6.8-7.9c-1-1.9,0.5-3.8,2.9-4.5C362.4,272.8,364.9,271.9,367.5,271.1z"/>
	<path class="st3" d="M191.4,248.8c0.8,0.9,1.6,1.8,2.4,2.7c-3.6,6.1-6.5,12.8-12.7,17.1c-1.3-0.1-2.5-0.2-3.8-0.3
		C181.6,261.4,186.1,254.8,191.4,248.8z"/>
	<path class="st9" d="M614.4,234.8c-0.1-2.9-2.2-2.8-4.3-2.9c0.4-1.1,0.9-2.1,1.3-3.2c2-1.4,4.2-2.3,6.7-2.5
		c0.6-0.3,1.2-0.6,1.8-0.8c0.9-0.6,1.9-1.1,2.8-1.7c3.7,2.7,7.5-1.2,11.3,0.1c-3.7,2.4-6.6,6-11.2,7.1c-4.2-3.7-4.2-0.5-4.3,2.6
		C617.6,235.1,616,234.7,614.4,234.8z"/>
	<path class="st9" d="M430.2,478.6c-2-0.9-7.5,1.1-4-4.7c5-2.9,10.9-3,16.3-5c10.6,1.2-2.7,3.9,0.3,5.6c0,0-0.1,0.1-0.1,0.1
		c-1.1-0.2-2.1,0.1-2.7,1.1c-0.3,0.3-0.6,0.5-1.1,0.5c-2.2,0.1-5-1.2-6,2.2C432,478.5,431.1,478.6,430.2,478.6z"/>
	<path class="st7" d="M240.3,224.9c1.9,1.3,2.7,3.2,3,5.3c-5.1,1.6-9.8,4.4-15.3,4.6c-0.5-1.9-0.9-3.7-1.4-5.6
		c2.9-1.4,5.9-2.8,9.2-3c0.6-0.2,1.3-0.4,1.9-0.6C238.5,225.3,239.4,225.1,240.3,224.9z"/>
	<path class="st11" d="M299.3,305.5c-4.2,4.5-8.4,8.7-12.7-0.1c-1.1-2.3-3.8-2.4-6.1-2.5c2.4-2.3,5.3-3.4,8.5-3.6
		c0.8,7.1,7.2,3.1,10.5,5.3C299.5,305,299.4,305.3,299.3,305.5z"/>
	<path class="st4" d="M484.7,271.2c1.7,1.5,3,3.1,2.9,5.6c0,0,0,0,0,0c-2.2-0.3-4.3-0.3-4.3,2.8c-1.7,2.7-4.5,3.8-7.1,5.1
		c0.2-2.6,0.4-5.2-3.3-5.6C476.9,276.5,480.8,273.9,484.7,271.2z"/>
	<path class="st11" d="M407.8,261.3c-2.3,0.4-4.6,0.9-6.9,1.3c-1.2-0.6-1.4-1.8-1.5-3c0.4-0.4,0.9-0.9,1.3-1.3
		c0.5-0.5,1.1-0.9,1.6-1.4c0,0-0.1,0.1-0.1,0.1c0.4-0.6,0.9-1.1,1.3-1.7c0,0-0.1,0.1-0.1,0.1c6,0.8,4.1-3.7,4.5-6.7
		c0.4-0.5,0.9-1,1.3-1.5c0.9,0,1.8,0,2.7,0.1c0.1,2.4,0.2,4.9,0.3,7.3c-0.3,0.8-0.6,1.6-0.9,2.3c-1.5,1-2,2.6-2.2,4.2
		C408.7,261.3,408.3,261.3,407.8,261.3z"/>
	<path class="st9" d="M653.2,291.9c5.1,1.2,4.2,6.1,5.7,9.5c-1.6,2.2-4.2,4-2.7,7.3c-4.3-0.3-3.7-3.8-4.2-6.5
		c-0.3-2.1,0.6-4.6-1.8-6.2C650.6,294.1,651.5,292.7,653.2,291.9z"/>
	<path class="st11" d="M419.1,260.1c3.7,0,7.3-0.2,11-0.1c1.6,0,3.7,0,4.1,1.8c0.5,2.2-1.8,2.4-3.2,2.8c-3.4,0.9-6.7,3.1-10.5,2.1
		c0-1.8,0-3.5-1.9-4.4C418.8,261.5,418.9,260.8,419.1,260.1z"/>
	<path class="st1" d="M717.4,270.6c-0.8,9.1-8.3,15-15.8,12.6C706.9,279,712.2,274.8,717.4,270.6z"/>
	<path class="st8" d="M681.6,195.8c-2.5,0.1-4.5-0.6-4.7-3.5c2.6-3.2,6.4-4.7,9.9-6.7c1,2.6,4.3,0.8,5.6,2.9
		C689.1,191.4,685.9,194.4,681.6,195.8z"/>
	<path class="st10" d="M381.1,303.1c-2.8,0.5-4.4-1.6-6.5-2.7c0.6-3.1,1.9-6,3.9-8.5c2.2,1.3,4.6,1.6,7,1.5
		C385.2,297.1,381.3,299.3,381.1,303.1z"/>
	<path class="st1" d="M36.8,226.4c2.7-0.1,2.9-2,2.8-4c3.5,3.8,7,7.6,9,13.9C42.6,234.2,39.4,230.6,36.8,226.4z"/>
	<path class="st9" d="M260.2,305c-0.3-2.6,1.2-5.6-1.7-7.7c1.5-1.8,3-3.6,4.4-5.3c3.2,0.5,3.6,3.1,4.1,5.6
		C264.7,300,262.5,302.5,260.2,305z"/>
	<path class="st2" d="M226.5,229.1c0.5,1.9,0.9,3.7,1.4,5.6c-3,1.9-6.1,3.6-9.8,2.6c1.5-1.8,0-3.6,0-5.4
		C220.7,230.4,223.5,229.4,226.5,229.1z"/>
	<path class="st13" d="M299.5,304.7c-3.2-2.3-9.7,1.8-10.5-5.3c1.1-0.1,2.1-0.3,3.2-0.4c0.4-0.4,0.9-0.8,1.3-1.3
		c0,0,0.1-0.1,0.1-0.1c3.2,1.1,8.3-0.9,8.1,5.3C301,303.5,300.3,304.1,299.5,304.7z"/>
	<path class="st3" d="M728.7,270.7c-0.2-1.5-1-3.2-2.5-1.7c-2.6,2.5-5.1,0.8-7.6,0.4c1.6-3.2,5.5-2.8,7.9-4.9c1.4-1.2,2.6,0,3.3,1.2
		C730.9,267.6,731.2,269.5,728.7,270.7z"/>
	<path class="st12" d="M418.6,262.3c1.9,1,1.9,2.7,1.9,4.4c-2.3,0.1-4.6,0.2-6.9,0.2c-4.3,0.5-6.3-1.2-5.8-5.6c0.5,0,0.9,0,1.4-0.1
		C412.1,263.5,415.4,262.4,418.6,262.3z"/>
	<path class="st1" d="M634.1,223.8c-3.7-1.3-7.5,2.6-11.3-0.1c3.2-3.1,7.5-4.2,11.2-6.6C634,219.3,634,221.5,634.1,223.8
		L634.1,223.8z"/>
	<path class="st6" d="M285.4,328.5c-0.1-2.2-1.5-2.8-3.3-3.2c3.4-2.7,7.5-2.8,12.3-4.1C292.5,326,289.1,327.4,285.4,328.5z"/>
	<path class="st12" d="M292.4,267.9c-0.4-4.3-1.4-8.6,4.8-10c3.5-0.8,3.2,1.1,3.2,3.2c-1.9,1.5-3.8,2.9-5.7,4.4
		c-0.4,0.4-0.8,0.9-1.3,1.3C293.1,267.1,292.8,267.5,292.4,267.9z"/>
	<path class="st3" d="M35.8,191.6c-1.8-0.9-3.6-1.8-5.8-1.5c0.6-2.2,1.7-4.2,3.4-5.8c0.6-0.5,1.2-1,1.9-1.5c0,0-0.1,0-0.1,0
		c2.1,0,2.9,2,4.3,3C39,188.2,37.8,190.2,35.8,191.6z"/>
	<path class="st1" d="M412,247.4c-0.9,0-1.8,0-2.7-0.1c1-3,2.8-5.3,5.4-7c0.9,0,1.7,0.1,2.6,0.1c0.5,1.9-0.5,4.4,2,5.7
		c-0.2,0.4-0.4,0.9-0.6,1.3c-0.6,0.4-1.1,0.9-1.7,1.3c0.1,0.3,0.3,0.5,0.3,0.8c0,0.1-0.2,0.3-0.3,0.4
		C416.2,247.4,414.2,247.1,412,247.4z"/>
	<path class="st3" d="M693.9,294.5c6.6-5.7,8,1.8,11.3,4.5c-0.9,1.5-1.8,2.9-2.7,4.4c-1-2.6,1.2-9.2-5.6-4.4
		C696.1,297.3,698.6,293.5,693.9,294.5z"/>
	<path class="st1" d="M405.2,478.1c-2.6,5-7.3,3.3-11.4,3.6c-2.5,0.2-4.9-0.1-7.4-0.1C392.5,479.2,399,479.4,405.2,478.1z"/>
	<path class="st3" d="M197,326.6c-2.7,5.4-5.7,10.3-12.8,9.8C188,332.5,192.4,329.4,197,326.6z"/>
	<path class="st6" d="M322.9,194.7c-3.8,4.2-7.7,8.3-14.2,5.7C313.4,198.5,318.2,196.6,322.9,194.7z"/>
	<path class="st1" d="M882.3,101c-0.5,6-4.9,8-9.6,9.7C874.7,106.3,878.2,103.3,882.3,101z"/>
	<path class="st12" d="M304.9,255.9c-1.1-5.9,0.7-7.2,9.2-6.9C311,251.3,308.9,254.8,304.9,255.9z"/>
	<path class="st8" d="M496.8,445.1c1.6,0.7,2.8,1.8,3.4,3.5c-2.4,1.1-4.8,2.3-7.1,3.4c0-1.8-0.1-3.5-0.1-5.3
		C493.8,445.2,495.4,445.3,496.8,445.1z"/>
	<path class="st6" d="M345.2,183.3c-1.6,5.6-5.1,7.3-10.4,5.1C337.6,185.3,341.7,185,345.2,183.3z"/>
	<path class="st6" d="M692.4,188.4c-1.3-2-4.6-0.2-5.6-2.9c2.3-1.4,4.6-2.7,6.9-4.1c0.5,2-0.5,4.3,1.6,5.8
		C694.3,187.7,693.4,188,692.4,188.4z"/>
	<path class="st3" d="M311.8,31.9c-3.6,2.6-7.1,5.6-11.4,1.2C304.1,32.6,307.8,30.7,311.8,31.9z"/>
	<path class="st9" d="M696.8,299c6.8-4.7,4.6,1.9,5.6,4.4c-0.2,1-0.5,2-1.6,2.5c-1-2.4-2.1-4.7-5.4-4.1
		C695.9,300.8,696.4,299.9,696.8,299z"/>
	<path class="st6" d="M418.6,262.3c-3.2,0.1-6.4,1.2-9.4-1c0.2-1.7,0.7-3.2,2.2-4.2c0.7,5.7,5.2,1.9,7.7,3.1
		C418.9,260.8,418.8,261.5,418.6,262.3z"/>
	<path class="st11" d="M419.3,246.1c-2.5-1.2-1.5-3.7-2-5.7c2.3-0.9,3.9-3.5,6.8-2.7C423.4,241.1,421.8,243.8,419.3,246.1z"/>
	<path class="st12" d="M356.3,39c-0.9-0.6-1.9-1.1-3.5-2.1c4,0,7.4-0.5,10.6,0.1c2.8,0.5,2,1.9-0.3,2.5
		C360.8,39.4,358.5,39.2,356.3,39z"/>
	<path class="st10" d="M766.5,319.8c-4,4.5-7.1,3.2-9.7-1.6C759.8,320.4,763.4,318.7,766.5,319.8z"/>
	<path class="st6" d="M709.2,171.7c0.1,6-4.3,5.6-8.3,5.8C703.5,175.3,705.2,171.9,709.2,171.7z"/>
	<path class="st14" d="M661.7,286.9c1.7-1.2,3.4-2.5,5.1-3.7c0.3,0.9,0.5,1.8,0.8,2.8c-0.6,2.4-2.9,3.1-4.6,3.6
		C659.7,290.5,661.6,288.1,661.7,286.9z"/>
	<path class="st1" d="M906,84c0.2-2.3-0.3-4.1-3.1-4.3c1.5-1.3,3.1-2.7,4.6-4c1.9,1.7,1,4,1.4,6C908.2,82.9,907.4,83.9,906,84z"/>
	<path class="st13" d="M445.1,305.9c-2.4-0.6-3.4-2.2-2.9-4.5c0.1-0.4,1.5-0.9,2.3-0.8c2.7,0.1,2.5,2.1,2.5,4
		C446.4,304.9,445.7,305.4,445.1,305.9z"/>
	<path class="st2" d="M412,247.4c2.2-0.3,4.1,0,5,2.5c-1.6,1.6-3.1,3.2-4.7,4.8C412.2,252.3,412.1,249.8,412,247.4z"/>
	<path class="st1" d="M240.5,44.1c-1.3,3.9-3.6,5-7,2.3C235.5,44.4,238,44.3,240.5,44.1z"/>
	<path class="st2" d="M408,248.8c-0.5,2.9,1.4,7.5-4.5,6.7C404.6,253,405.8,250.6,408,248.8z"/>
	<path class="st6" d="M700.9,177.6c-0.6,4.7-4,4.1-7.3,3.9C695.3,178.8,698.3,178.4,700.9,177.6z"/>
	<path class="st4" d="M642,308.5c-1.7,1-2.8,2.9-5.1,3.1c0.4-3.4,3.3-4.9,5.5-7C642.3,305.9,642.1,307.2,642,308.5z"/>
	<path class="st14" d="M299.5,304.7c0.8-0.6,1.5-1.2,2.3-1.8c1.5,0.1,2.9,0.3,4.4,0.4c0,1.3,0,2.6-0.1,4c-2.3-0.6-4.5-1.2-6.8-1.7
		C299.4,305.3,299.5,305,299.5,304.7z"/>
	<path class="st9" d="M634.1,223.8c0-2.2,0-4.5-0.1-6.7c0.3-0.4,0.7-0.6,1.2-0.5c2.2,1.3,1.5,3.5,1.5,5.4
		C635.8,222.6,634.9,223.2,634.1,223.8z"/>
	<path class="st4" d="M649.1,297.2c0.7,4.4-2.1,5.3-5.5,5.9C644.6,300.4,647.2,299,649.1,297.2z"/>
	<path class="st3" d="M493,446.7c0,1.8,0.1,3.5,0.1,5.3c-0.7,1.1-1.8,0.6-2.7,0.7c-0.1-1.4-0.5-2.6-1.9-3.3
		C490,448.5,491.5,447.6,493,446.7z"/>
	<path class="st2" d="M798.1,92.4c-1.3-0.5-2.6-1-3.9-1.4c0.1-1.1,0.4-2.2,1.5-2.7c1.4,0,2.8,0,4.2,0
		C799.3,89.7,798.7,91,798.1,92.4z"/>
	<path class="st8" d="M685.5,272.4c1.1,0.7,2.5,1.3,2.2,2.9c-0.1,0.4-0.9,1-1.5,1c-1.8,0-2-1.5-2.2-2.8
		C684.5,273.2,685,272.8,685.5,272.4z"/>
	<path class="st6" d="M307.5,39c3.2-1.9,6.6-0.7,9.9-0.9C314.2,40,310.8,39.1,307.5,39z"/>
	<path class="st10" d="M618.6,233.4c0.1-3,0.1-6.3,4.3-2.6C621.5,231.7,620.1,232.6,618.6,233.4z"/>
	<path class="st8" d="M799.9,88.3c-1.4,0-2.8,0-4.2,0c0.5-1.7,1.4-3,2.9-4c0.5,1,1,2.1,1.5,3.1C800.3,87.7,800.2,88,799.9,88.3z"/>
	<path class="st3" d="M160.9,75.5c-0.3,4-3.4,2.7-5.7,2.9C156.6,76.4,159,76.5,160.9,75.5z"/>
	<path class="st1" d="M432.9,478.5c1-3.4,3.7-2.2,6-2.2C437.3,478.1,435.1,478.2,432.9,478.5z"/>
	<path class="st6" d="M353.6,179.1c-1,1.5-1.4,4.2-4.3,2.6C350.4,180.2,351.8,179.5,353.6,179.1z"/>
	<path class="st7" d="M433.1,96.8c0-3.1,0.1-6.1,0.1-9.2C434.7,90.7,434.8,93.7,433.1,96.8z"/>
	<path class="st2" d="M483.3,279.6c0-3.1,2.1-3.1,4.3-2.8C486.8,278.6,485.1,279.1,483.3,279.6z"/>
	<path class="st6" d="M328.5,191.8c-0.4,2.7-2.5,2.6-4.5,2.4C325.1,192.6,326.7,192.1,328.5,191.8z"/>
	<path class="st3" d="M144.3,85.9c-0.5,2.7-2.6,2.3-4.5,2.2C140.9,86.6,142.6,86.3,144.3,85.9z"/>
	<path class="st6" d="M813.9,61.7c0.1,2.2,0,4.2-3,4.1C811.9,64.4,812.9,63.1,813.9,61.7z"/>
	<path class="st14" d="M306,310c0-0.9,0.1-1.8,0.1-2.8c1-0.1,2,0.1,2.2,1.1C308.4,309.9,307.2,310.1,306,310z"/>
	<path class="st3" d="M350.7,32.5c-1.1,1.7-2.1,1.3-2.9-0.3C348.8,32.3,349.7,32.4,350.7,32.5z"/>
	<path class="st1" d="M677.2,279.5c-0.1,2-1.3,2.7-3.2,2.5C674.6,280.6,675.7,279.8,677.2,279.5z"/>
	<path class="st3" d="M166.6,73.2c-0.3,1.7-0.8,3.1-2.7,1.3C164.8,74.1,165.7,73.7,166.6,73.2z"/>
	<path class="st3" d="M126,96.4c-0.1,2.1-1,3.1-3.2,2.5C123.9,98.1,125,97.2,126,96.4z"/>
	<path class="st6" d="M303.3,202.9c-0.4,1.8-1,3.2-2.9,1.1C301.2,203,302.2,202.7,303.3,202.9z"/>
	<path class="st1" d="M373.9,481.3c-1.6,0-3.1,0.1-4.7,0.1C370.8,480.5,372.3,480.2,373.9,481.3z"/>
	<path class="st1" d="M841.4,49.5c-0.3-1-0.7-1.9-1-2.9C841.2,47.3,842,48.1,841.4,49.5z"/>
	<path class="st1" d="M440,475.8c0.6-1,1.6-1.3,2.7-1.1C441.8,475,440.9,475.4,440,475.8z"/>
	<path class="st12" d="M687,294.8c-0.7-0.1-1.4-0.2-2.1-0.3c0.3-1.2,0.4-2.5,2-2.6C686.9,292.9,687,293.8,687,294.8z"/>
	<path class="st1" d="M677.3,286.7c0.3-1.2,1.2-1.6,2.4-1.7C679.4,286.2,678.3,286.5,677.3,286.7z"/>
	<path class="st5" d="M444.5,284.4c-0.3-1.3-0.4-2.5,0.7-3.6C445.5,282.1,445.5,283.4,444.5,284.4z"/>
	<path class="st9" d="M608.9,237.3c0.9-0.4,1.9-0.7,2.8-1.1C611,237.3,610,237.4,608.9,237.3z"/>
	<path class="st3" d="M127.5,101.9c0.9-0.4,1.7-0.8,2.6-1.2C129.3,101.2,128.4,101.5,127.5,101.9z"/>
	<path class="st1" d="M670.2,292c0.5-1,1.4-1.4,2.5-1.4C672.3,291.8,671.5,292.3,670.2,292z"/>
	<path class="st1" d="M364.7,480.7c-1,1.1-1.9,1-2.8-0.2C362.8,480.6,363.7,480.7,364.7,480.7z"/>
	<path class="st1" d="M382,481.4c-1.3,0-2.6,0-3.9,0C379.4,480.4,380.7,480.4,382,481.4z"/>
	<path class="st10" d="M756.9,318.3c-0.5-0.5-1-1-1.5-1.5C755.9,317.3,756.4,317.8,756.9,318.3z"/>
	<path class="st2" d="M402.3,257c-0.5,0.5-1.1,0.9-1.6,1.4C401.2,257.9,401.8,257.5,402.3,257z"/>
	<path class="st2" d="M403.5,255.4c-0.4,0.6-0.9,1.1-1.3,1.7C402.7,256.5,403.1,255.9,403.5,255.4z"/>
	<path class="st8" d="M769.1,129.7c-0.5,0.6-0.9,1.2-1.4,1.8C768.2,130.9,768.6,130.3,769.1,129.7z"/>
	<path class="st10" d="M767.5,321.2c-0.3-0.5-0.7-0.9-1-1.4C767.3,319.9,767.7,320.4,767.5,321.2z"/>
	<path class="st11" d="M417,248.8c0.6-0.4,1.1-0.9,1.7-1.3C418.5,248.4,418,248.9,417,248.8z"/>
	<path class="st6" d="M809.2,67.9c0.2,1-0.1,1.7-1,2.2C808.6,69.4,808.9,68.7,809.2,67.9z"/>
	<path class="st3" d="M343.7,31.4c-0.4,0.7-0.8,0.8-1.4,0.2C342.8,31.5,343.3,31.4,343.7,31.4z"/>
	<path class="st3" d="M359,32.5c-0.7-0.3-1.4-0.5-2.1-0.8C357.9,31.2,358.6,31.3,359,32.5z"/>
	<path class="st8" d="M235,338c0.1-0.4,0.2-0.9,0.4-1.3C235.3,337.2,235.1,337.6,235,338z"/>
	<path class="st1" d="M872.6,110.9c-0.4,0.4-0.9,0.8-1.3,1.2C871.7,111.7,872.1,111.3,872.6,110.9z"/>
	<path class="st8" d="M804.3,112.5c0.5-0.6,1.1-1.2,1.6-1.8C805.4,111.3,804.8,111.9,804.3,112.5z"/>
	<path class="st6" d="M334,188.9c-0.5,0.4-1,0.8-1.6,1.1C333,189.7,333.5,189.3,334,188.9z"/>
	<path class="st1" d="M221.1,55.5c0.5-0.2,1.1-0.4,1.6-0.6C222.2,55.1,221.6,55.3,221.1,55.5z"/>
	<path class="st11" d="M293.6,297.7c-0.4,0.4-0.9,0.8-1.3,1.3C292.7,298.5,293.1,298.1,293.6,297.7z"/>
	<path class="st1" d="M268.4,221.7c0.6-0.2,1.2-0.5,1.8-0.7C269.6,221.2,269,221.5,268.4,221.7z"/>
	<path class="st3" d="M705.1,299c0.3-0.5,0.7-1,1-1.5C706.3,298.4,705.9,298.8,705.1,299z"/>
	<path class="st3" d="M138.7,94.9c0.5-0.3,1.1-0.6,1.6-0.9C139.8,94.2,139.3,94.6,138.7,94.9z"/>
	<path class="st1" d="M262.8,217.1c-0.5,0.3-1,0.5-1.5,0.8C261.8,217.6,262.3,217.4,262.8,217.1z"/>
	<path class="st1" d="M620,225.4c-0.6,0.3-1.2,0.6-1.8,0.8C618.8,225.9,619.4,225.6,620,225.4z"/>
	<path class="st1" d="M237.6,225.6c-0.6,0.2-1.2,0.4-1.9,0.6C236.4,226,237,225.8,237.6,225.6z"/>
	<path class="st1" d="M35.4,182.9c-0.6,0.5-1.2,1-1.9,1.5C34.1,183.9,34.7,183.4,35.4,182.9z"/>
	<path class="st9" d="M293.5,266.7c0.4-0.4,0.8-0.9,1.3-1.3C294.4,265.8,293.9,266.3,293.5,266.7z"/>
	<path class="st3" d="M151.3,88c0.6-0.3,1.1-0.6,1.7-1C152.4,87.3,151.8,87.6,151.3,88z"/>
	<path class="st9" d="M613.1,235.5c0.4-0.2,0.9-0.5,1.3-0.7C614,235,613.5,235.3,613.1,235.5z"/>
	<path class="st3" d="M339.5,31.7c-0.5,0.6-0.9,0.6-1.4-0.1C338.6,31.6,339.1,31.6,339.5,31.7z"/>
	<path class="st6" d="M354.9,178c-0.4,0.3-0.8,0.7-1.2,1C354.1,178.7,354.5,178.3,354.9,178z"/>
	<path class="st3" d="M291.7,36.8c-0.2,0-0.3,0.1-0.5,0.1c-0.1-0.2-0.1-0.4-0.1-0.6c0-0.1,0.3-0.1,0.4-0.1
		C291.6,36.5,291.7,36.7,291.7,36.8z"/>
	<path class="st14" d="M786.7,112.8c0.8,0.8,1.7,1.6,2.5,2.4c-1.5,3.2-4.2,4.7-7.6,5.3C781.9,117,783.8,114.6,786.7,112.8z"/>
</g>
</svg>
